<svg width="36" height="36" viewBox="0 0 36 36" fill="none" xmlns="http://www.w3.org/2000/svg">
<circle cx="18" cy="18" r="18" fill="#D97757"/>
<path d="M9.14897 14.38L9.38897 14.48C9.45564 14.5067 9.52897 14.5267 9.60897 14.54C9.7023 14.5533 9.78897 14.5467 9.86897 14.52H9.96897C10.369 14.5733 10.729 14.66 11.049 14.78C10.929 14.8333 10.889 14.8867 10.929 14.94C10.969 14.9933 11.029 15.0533 11.109 15.12C11.1356 15.1333 11.1623 15.1533 11.189 15.18C11.2156 15.2067 11.2356 15.2333 11.249 15.26C11.289 15.3 11.2623 15.3467 11.169 15.4C11.049 15.4533 10.9823 15.5133 10.969 15.58V15.66C10.9823 15.7267 10.9356 15.7867 10.829 15.84C10.6823 15.92 10.5823 16 10.529 16.08C10.5023 16.1067 10.489 16.1267 10.489 16.14C10.449 16.1533 10.4156 16.1733 10.389 16.2C10.3756 16.2267 10.3556 16.2533 10.329 16.28C10.3156 16.2933 10.289 16.3067 10.249 16.32C10.209 16.3333 10.169 16.3533 10.129 16.38C10.1156 16.3933 10.0956 16.4067 10.069 16.42C10.0556 16.42 10.0356 16.4267 10.009 16.44C10.009 16.44 10.0023 16.44 9.98897 16.44C9.98897 16.44 9.97564 16.4333 9.94897 16.42C9.93564 16.5133 9.8823 16.58 9.78897 16.62C9.70897 16.66 9.63564 16.7 9.56897 16.74L9.52897 16.72C9.56897 16.6533 9.58897 16.6067 9.58897 16.58V16.52C9.5623 16.5067 9.5223 16.5133 9.46897 16.54C9.41564 16.5533 9.38897 16.5733 9.38897 16.6C9.37564 16.6533 9.3423 16.7067 9.28897 16.76C9.24897 16.8 9.19564 16.84 9.12897 16.88C9.1023 16.9067 9.06897 16.9267 9.02897 16.94C8.98897 16.9533 8.97564 16.9867 8.98897 17.04C8.90897 17.0933 8.8423 17.1533 8.78897 17.22C8.73564 17.2867 8.65564 17.3333 8.54897 17.36C8.5223 17.3733 8.5023 17.3867 8.48897 17.4C8.47564 17.4133 8.45564 17.4267 8.42897 17.44C8.41564 17.4533 8.40897 17.46 8.40897 17.46L8.24897 17.56C8.20897 17.5333 8.15564 17.54 8.08897 17.58C8.03564 17.5533 7.9823 17.5333 7.92897 17.52C7.88897 17.5067 7.83564 17.4933 7.76897 17.48C7.7823 17.4667 7.79564 17.4533 7.80897 17.44C7.72897 17.44 7.63564 17.48 7.52897 17.56C7.4223 17.6267 7.3823 17.6867 7.40897 17.74C7.43564 17.7133 7.47564 17.6867 7.52897 17.66C7.5823 17.6333 7.6223 17.6067 7.64897 17.58C7.68897 17.5933 7.73564 17.6067 7.78897 17.62C7.85564 17.62 7.94897 17.62 8.06897 17.62C7.97564 17.6333 7.91564 17.6467 7.88897 17.66C7.8623 17.66 7.83564 17.66 7.80897 17.66C7.79564 17.6733 7.76897 17.6933 7.72897 17.72C7.7023 17.7467 7.6623 17.7333 7.60897 17.68H7.58897C7.57564 17.6933 7.5623 17.7133 7.54897 17.74C7.54897 17.7667 7.5423 17.7933 7.52897 17.82C7.52897 17.82 7.5223 17.8267 7.50897 17.84C7.50897 17.84 7.51564 17.84 7.52897 17.84C7.52897 17.8533 7.52897 17.8667 7.52897 17.88C7.5423 17.8933 7.54897 17.9 7.54897 17.9C7.49564 17.94 7.4423 17.98 7.38897 18.02C7.33564 18.0467 7.26897 18.0667 7.18897 18.08C7.17564 18.08 7.1623 18.08 7.14897 18.08C7.13564 18.0667 7.12897 18.06 7.12897 18.06C7.1823 18.0333 7.22897 18.02 7.26897 18.02C7.29564 17.94 7.32897 17.8867 7.36897 17.86H7.28897C7.23564 17.8867 7.16897 17.9133 7.08897 17.94C7.0223 17.9533 7.0023 18 7.02897 18.08C7.01564 18.0667 6.99564 18.06 6.96897 18.06C6.9423 18.06 6.91564 18.0533 6.88897 18.04C6.9023 18.04 6.93564 18.0267 6.98897 18L6.74897 17.88C6.74897 17.8933 6.7423 17.9067 6.72897 17.92C6.71564 17.9333 6.70897 17.9467 6.70897 17.96C6.77564 17.9733 6.81564 17.9933 6.82897 18.02C6.8023 18.0333 6.76897 18.0467 6.72897 18.06C6.7023 18.06 6.67564 18.0667 6.64897 18.08C6.64897 18.0933 6.62897 18.1 6.58897 18.1C6.49564 18.0867 6.44897 18.12 6.44897 18.2C6.43564 18.24 6.46897 18.26 6.54897 18.26C6.54897 18.26 6.55564 18.26 6.56897 18.26C6.5823 18.26 6.6023 18.2667 6.62897 18.28L6.44897 18.34C6.51564 18.3933 6.56897 18.4533 6.60897 18.52C6.64897 18.5733 6.69564 18.6267 6.74897 18.68C6.77564 18.7067 6.80897 18.7333 6.84897 18.76C6.88897 18.7733 6.92897 18.7933 6.96897 18.82C7.0223 18.8467 7.0623 18.8733 7.08897 18.9C7.11564 18.9133 7.13564 18.9333 7.14897 18.96C7.17564 18.9867 7.21564 19.0067 7.26897 19.02C7.29564 19.02 7.3223 19.0267 7.34897 19.04C7.37564 19.0533 7.39564 19.06 7.40897 19.06C7.51564 19.1267 7.6223 19.1933 7.72897 19.26C7.83564 19.3267 7.94897 19.3933 8.06897 19.46C8.13564 19.5 8.20897 19.54 8.28897 19.58C8.3823 19.6067 8.4623 19.6333 8.52897 19.66L8.54897 19.68C8.61564 19.7333 8.68897 19.78 8.76897 19.82C8.8623 19.8467 8.9423 19.8867 9.00897 19.94L9.64897 20.26C9.6623 20.2733 9.67564 20.28 9.68897 20.28C9.7023 20.28 9.70897 20.2867 9.70897 20.3C9.69564 20.3533 9.70897 20.3867 9.74897 20.4C9.8023 20.4 9.85564 20.4067 9.90897 20.42C10.0023 20.4467 10.0556 20.4733 10.069 20.5C10.109 20.5267 10.149 20.56 10.189 20.6C10.2823 20.64 10.3623 20.6867 10.429 20.74C10.509 20.78 10.5823 20.82 10.649 20.86C10.7423 20.9267 10.8156 21 10.869 21.08C10.9356 21.1467 10.9556 21.2333 10.929 21.34V21.38C10.9556 21.4067 10.969 21.44 10.969 21.48C10.969 21.5067 10.9756 21.54 10.989 21.58C10.9356 21.5933 10.8823 21.6 10.829 21.6C10.789 21.6 10.7356 21.6067 10.669 21.62C10.7356 21.6733 10.7756 21.7333 10.789 21.8C10.789 21.8133 10.789 21.8267 10.789 21.84H10.709C10.669 21.7733 10.609 21.7467 10.529 21.76C10.449 21.76 10.3756 21.7533 10.309 21.74C10.2556 21.74 10.2156 21.7533 10.189 21.78L10.129 21.84C10.049 21.8133 9.97564 21.7933 9.90897 21.78C9.8423 21.7533 9.77564 21.7333 9.70897 21.72V21.74C9.69564 21.7133 9.6823 21.6933 9.66897 21.68C9.66897 21.6533 9.6623 21.6333 9.64897 21.62H9.60897C9.56897 21.6733 9.55564 21.7267 9.56897 21.78C9.59564 21.8333 9.6023 21.88 9.58897 21.92C9.45564 21.9333 9.38897 21.9067 9.38897 21.84C9.4023 21.8 9.36897 21.78 9.28897 21.78C9.16897 21.78 9.08897 21.7467 9.04897 21.68C8.99564 21.6533 8.94897 21.62 8.90897 21.58C8.8823 21.54 8.8423 21.5133 8.78897 21.5C8.69564 21.4733 8.61564 21.44 8.54897 21.4C8.4823 21.3467 8.41564 21.2933 8.34897 21.24C8.34897 21.24 8.3423 21.24 8.32897 21.24C8.32897 21.2267 8.31564 21.22 8.28897 21.22C8.20897 21.1933 8.13564 21.16 8.06897 21.12C8.01564 21.08 7.95564 21.04 7.88897 21C7.8623 20.9733 7.82897 20.9467 7.78897 20.92C7.74897 20.8933 7.71564 20.8667 7.68897 20.84C7.6623 20.84 7.6223 20.8133 7.56897 20.76C7.5423 20.7333 7.5223 20.72 7.50897 20.72L7.20897 20.56C7.12897 20.4933 7.04897 20.44 6.96897 20.4C6.88897 20.3467 6.81564 20.2933 6.74897 20.24L6.68897 20.2C6.6223 20.0933 6.5223 20 6.38897 19.92C6.25564 19.84 6.13564 19.7533 6.02897 19.66L5.70897 19.46C5.58897 19.4067 5.47564 19.3533 5.36897 19.3C5.2623 19.2467 5.15564 19.1867 5.04897 19.12C5.03564 19.12 5.0223 19.12 5.00897 19.12C4.99564 19.1067 4.9823 19.1 4.96897 19.1C4.87564 19.1 4.81564 19.06 4.78897 18.98C4.77564 18.9533 4.7623 18.9333 4.74897 18.92C4.73564 18.8933 4.72897 18.8733 4.72897 18.86C4.72897 18.78 4.7423 18.72 4.76897 18.68C4.8223 18.6133 4.84897 18.5467 4.84897 18.48C4.8623 18.4133 4.86897 18.34 4.86897 18.26C4.86897 18.26 4.86897 18.2533 4.86897 18.24C4.8823 18.2133 4.89564 18.1933 4.90897 18.18C4.90897 18.1533 4.90897 18.1333 4.90897 18.12C4.9223 18.0933 4.92897 18.0733 4.92897 18.06C4.92897 17.98 4.96897 17.9333 5.04897 17.92C5.1423 17.92 5.18897 17.8933 5.18897 17.84C5.21564 17.7733 5.26897 17.72 5.34897 17.68C5.42897 17.64 5.5023 17.6 5.56897 17.56L5.72897 17.52C5.75564 17.5067 5.77564 17.4933 5.78897 17.48C5.81564 17.4667 5.83564 17.46 5.84897 17.46L6.10897 17.4C6.18897 17.3733 6.24897 17.3467 6.28897 17.32C6.3423 17.2933 6.39564 17.2667 6.44897 17.24C6.5023 17.2 6.54897 17.16 6.58897 17.12C6.6823 17.08 6.7623 17.0333 6.82897 16.98C6.90897 16.9267 6.99564 16.8733 7.08897 16.82L7.36897 16.62C7.43564 16.58 7.47564 16.5333 7.48897 16.48C7.5823 16.4 7.67564 16.32 7.76897 16.24C7.8623 16.1467 7.94897 16.06 8.02897 15.98C8.05564 15.9533 8.0823 15.9267 8.10897 15.9C8.14897 15.8733 8.1823 15.8467 8.20897 15.82L8.60897 15.34C8.67564 15.2467 8.73564 15.16 8.78897 15.08C8.8423 14.9867 8.89564 14.8933 8.94897 14.8C8.97564 14.7467 8.99564 14.7067 9.00897 14.68C9.0223 14.64 9.03564 14.5933 9.04897 14.54V14.48C9.0623 14.4667 9.07564 14.4533 9.08897 14.44C9.1023 14.4133 9.1223 14.3933 9.14897 14.38ZM8.88897 17.28C8.9823 17.36 8.95564 17.4133 8.80897 17.44C8.79564 17.44 8.77564 17.4533 8.74897 17.48V17.6C8.7223 17.6267 8.69564 17.6467 8.66897 17.66C8.45564 17.7 8.2623 17.7933 8.08897 17.94C8.07564 17.9533 8.0623 17.96 8.04897 17.96C8.03564 17.96 8.0223 17.9667 8.00897 17.98C8.00897 17.9667 8.0023 17.96 7.98897 17.96C8.01564 17.9333 8.0423 17.9133 8.06897 17.9C8.13564 17.86 8.19564 17.8 8.24897 17.72C8.28897 17.68 8.32897 17.66 8.36897 17.66H8.42897C8.49564 17.62 8.54897 17.58 8.58897 17.54C8.6423 17.5 8.68897 17.4667 8.72897 17.44C8.76897 17.3733 8.8223 17.32 8.88897 17.28ZM9.04897 17.28C8.92897 17.2133 8.92897 17.14 9.04897 17.06C9.11564 17.06 9.1623 17.0267 9.18897 16.96C9.18897 16.9333 9.22897 16.9067 9.30897 16.88C9.33564 16.8667 9.37564 16.8333 9.42897 16.78C9.41564 16.78 9.40897 16.78 9.40897 16.78C9.40897 16.7667 9.40897 16.76 9.40897 16.76C9.4623 16.76 9.48897 16.7733 9.48897 16.8C9.48897 16.8 9.48897 16.82 9.48897 16.86C9.43564 16.8867 9.38897 16.9267 9.34897 16.98C9.30897 17.0333 9.26897 17.0867 9.22897 17.14C9.2023 17.1933 9.1423 17.24 9.04897 17.28ZM7.48897 18.28C7.5423 18.1733 7.64897 18.1067 7.80897 18.08C7.75564 18.1067 7.7023 18.14 7.64897 18.18C7.60897 18.22 7.55564 18.2533 7.48897 18.28ZM16.3569 13.08L16.2969 12.92C16.3902 12.96 16.4102 13.0133 16.3569 13.08ZM16.3569 13.08V13.1C16.3569 13.1 16.3569 13.0933 16.3569 13.08V13.1C16.3302 13.14 16.3235 13.18 16.3369 13.22C16.3635 13.26 16.3835 13.3 16.3969 13.34C16.3969 13.3533 16.3969 13.36 16.3969 13.36C16.4102 13.36 16.4169 13.3667 16.4169 13.38C16.4435 13.4733 16.4635 13.56 16.4769 13.64C16.4902 13.7067 16.5035 13.78 16.5169 13.86C16.5302 13.8867 16.5302 13.9133 16.5169 13.94C16.5169 13.9667 16.5235 13.9933 16.5369 14.02C16.5369 14.0733 16.5702 14.0933 16.6369 14.08C16.6369 14.08 16.6435 14.0867 16.6569 14.1C16.6835 14.1 16.6969 14.1133 16.6969 14.14C16.7102 14.2067 16.7302 14.2667 16.7569 14.32C16.7969 14.36 16.8369 14.4067 16.8769 14.46C16.9035 14.5 16.9435 14.5467 16.9969 14.6C17.0102 14.6133 17.0169 14.6333 17.0169 14.66C17.0435 14.78 17.0702 14.86 17.0969 14.9C17.0969 14.9133 17.1035 14.9267 17.1169 14.94C17.1435 14.9533 17.1635 14.9533 17.1769 14.94C17.2702 14.9267 17.3169 14.96 17.3169 15.04V15.14C17.3169 15.1533 17.3302 15.1867 17.3569 15.24H17.3769C17.3769 15.1867 17.3835 15.14 17.3969 15.1C17.4235 15.14 17.4435 15.18 17.4569 15.22C17.4835 15.2467 17.5035 15.2733 17.5169 15.3C17.5435 15.34 17.5635 15.38 17.5769 15.42C17.5902 15.4467 17.6169 15.46 17.6569 15.46C17.6835 15.46 17.6969 15.48 17.6969 15.52C17.7235 15.5867 17.7502 15.6533 17.7769 15.72C17.8035 15.7733 17.8502 15.82 17.9169 15.86C17.9169 15.86 17.9169 15.8667 17.9169 15.88C17.9169 15.88 17.9235 15.88 17.9369 15.88C17.9769 15.9733 18.0169 16.0667 18.0569 16.16C18.1102 16.2533 18.1635 16.34 18.2169 16.42C18.2569 16.46 18.2835 16.4733 18.2969 16.46C18.3235 16.4467 18.3502 16.4667 18.3769 16.52C18.4035 16.5467 18.4369 16.56 18.4769 16.56C18.4769 16.56 18.4969 16.54 18.5369 16.5C18.5769 16.4067 18.5635 16.3133 18.4969 16.22C18.4835 16.2067 18.4369 16.2 18.3569 16.2L18.3369 16.22C18.3369 16.1933 18.3302 16.1667 18.3169 16.14C18.3169 16.1 18.3169 16.0667 18.3169 16.04C18.3169 15.9867 18.3102 15.94 18.2969 15.9C18.2969 15.86 18.2769 15.82 18.2369 15.78C18.2102 15.7533 18.1969 15.7 18.1969 15.62C18.1835 15.58 18.1702 15.54 18.1569 15.5C18.1569 15.4467 18.1302 15.4067 18.0769 15.38C18.0769 15.38 18.0769 15.3733 18.0769 15.36C18.0769 15.3467 18.0769 15.3333 18.0769 15.32H18.1169C18.1435 15.36 18.1635 15.3933 18.1769 15.42C18.1902 15.4467 18.1969 15.48 18.1969 15.52C18.2102 15.56 18.2235 15.6 18.2369 15.64C18.2635 15.68 18.3035 15.7067 18.3569 15.72C18.3835 15.72 18.3969 15.7533 18.3969 15.82C18.4235 15.8733 18.4435 15.92 18.4569 15.96C18.4702 16 18.5035 16.0333 18.5569 16.06C18.5835 16.0733 18.6035 16.0933 18.6169 16.12C18.6435 16.1467 18.6635 16.1733 18.6769 16.2C18.7035 16.2267 18.7302 16.2667 18.7569 16.32C18.7835 16.36 18.8102 16.3933 18.8369 16.42C18.8902 16.38 18.9435 16.34 18.9969 16.3C19.0502 16.26 19.0969 16.2133 19.1369 16.16C19.1902 16.1067 19.2369 16.0267 19.2769 15.92C19.2902 15.8933 19.2969 15.8733 19.2969 15.86C19.2969 15.8467 19.3035 15.8333 19.3169 15.82C19.3702 15.7267 19.3502 15.6533 19.2569 15.6C19.3235 15.4933 19.3835 15.3733 19.4369 15.24C19.4769 15.1733 19.5102 15.1067 19.5369 15.04C19.5769 14.96 19.6235 14.8867 19.6769 14.82C19.7169 14.74 19.7569 14.6667 19.7969 14.6C19.8502 14.5333 19.8969 14.4667 19.9369 14.4L20.1369 14.02C20.1635 13.9533 20.1969 13.8933 20.2369 13.84C20.2902 13.7733 20.3369 13.7067 20.3769 13.64C20.3902 13.6133 20.4035 13.5867 20.4169 13.56C20.4302 13.5333 20.4435 13.5 20.4569 13.46C20.4835 13.38 20.5235 13.3067 20.5769 13.24C20.6302 13.1733 20.6769 13.1133 20.7169 13.06C20.7435 13.02 20.7702 12.9733 20.7969 12.92C20.8235 12.8667 20.8502 12.82 20.8769 12.78C20.9035 12.7533 20.9302 12.7267 20.9569 12.7C20.9969 12.66 21.0235 12.62 21.0369 12.58L21.4169 12.08C21.4835 12.0133 21.5369 11.9467 21.5769 11.88C21.6169 11.8133 21.6635 11.7533 21.7169 11.7C21.8502 11.5533 21.9169 11.4 21.9169 11.24C21.9302 11.08 21.9435 10.9133 21.9569 10.74L21.9369 10.6C21.8702 10.4667 21.8769 10.3667 21.9569 10.3C21.9969 10.3133 22.0302 10.3267 22.0569 10.34C22.0969 10.34 22.1369 10.34 22.1769 10.34C22.1902 10.34 22.2102 10.3267 22.2369 10.3C22.2902 10.2733 22.3235 10.26 22.3369 10.26C22.3902 10.3133 22.4369 10.3533 22.4769 10.38C22.4769 10.38 22.4769 10.3867 22.4769 10.4C22.4769 10.4133 22.4835 10.42 22.4969 10.42C22.5502 10.3933 22.5835 10.4 22.5969 10.44C22.6235 10.48 22.6435 10.5133 22.6569 10.54C22.6702 10.5667 22.7035 10.5733 22.7569 10.56C22.8235 10.5467 22.8702 10.52 22.8969 10.48C22.8969 10.4533 22.9035 10.44 22.9169 10.44C22.9569 10.3467 23.0035 10.3267 23.0569 10.38C23.1102 10.46 23.1902 10.5 23.2969 10.5C23.3502 10.5133 23.3969 10.52 23.4369 10.52C23.4902 10.52 23.5369 10.5267 23.5769 10.54L23.6969 10.6C23.7235 10.6133 23.7435 10.6267 23.7569 10.64C23.7835 10.6533 23.8035 10.6667 23.8169 10.68L24.0769 10.88C24.1035 10.8933 24.1035 10.9333 24.0769 11C24.0635 11.0667 24.0435 11.1133 24.0169 11.14C23.8969 11.1933 23.8235 11.2933 23.7969 11.44C23.7702 11.5467 23.7169 11.62 23.6369 11.66C23.5835 11.6733 23.5369 11.7 23.4969 11.74C23.4702 11.78 23.4369 11.82 23.3969 11.86C23.3435 11.9 23.2902 11.9467 23.2369 12C23.1969 12.04 23.1569 12.08 23.1169 12.12C23.0902 12.1467 23.0635 12.18 23.0369 12.22C23.0235 12.2467 23.0035 12.28 22.9769 12.32C22.8969 12.4267 22.8035 12.5133 22.6969 12.58C22.6969 12.5933 22.6835 12.6133 22.6569 12.64C22.6435 12.6533 22.6302 12.66 22.6169 12.66C22.6169 12.66 22.6102 12.6667 22.5969 12.68L22.5769 12.6C22.6035 12.52 22.6169 12.4733 22.6169 12.46C22.6169 12.42 22.6102 12.3933 22.5969 12.38C22.5835 12.3933 22.5702 12.4 22.5569 12.4C22.5435 12.4 22.5302 12.4067 22.5169 12.42C22.4635 12.5 22.4035 12.58 22.3369 12.66C22.2835 12.74 22.2235 12.8267 22.1569 12.92C22.1169 12.96 22.0769 13.0067 22.0369 13.06C22.0102 13.1133 21.9635 13.1533 21.8969 13.18C21.8835 13.1933 21.8769 13.2133 21.8769 13.24C21.8769 13.2533 21.8702 13.2733 21.8569 13.3C21.8169 13.3667 21.7702 13.44 21.7169 13.52C21.6769 13.6 21.6369 13.68 21.5969 13.76C21.5302 13.72 21.4835 13.7333 21.4569 13.8C21.4435 13.84 21.4369 13.8867 21.4369 13.94C21.4235 13.9933 21.3835 14.0133 21.3169 14C21.2635 13.96 21.2235 13.9467 21.1969 13.96C21.1702 13.96 21.1302 13.9933 21.0769 14.06C20.9969 14.18 20.9102 14.2867 20.8169 14.38C20.7235 14.5267 20.6502 14.6667 20.5969 14.8C20.5702 14.8267 20.5702 14.8867 20.5969 14.98C20.6502 15.0467 20.6502 15.1267 20.5969 15.22C20.5835 15.2467 20.5702 15.2733 20.5569 15.3C20.5435 15.3267 20.5235 15.36 20.4969 15.4C20.4702 15.4267 20.4502 15.4533 20.4369 15.48C20.3969 15.4533 20.3502 15.48 20.2969 15.56L19.9969 16.28C19.9969 16.2933 19.9902 16.3133 19.9769 16.34C19.9769 16.3667 19.9835 16.3933 19.9969 16.42C20.0102 16.54 20.0035 16.6467 19.9769 16.74C19.9502 16.8333 19.9169 16.9267 19.8769 17.02C19.8502 17.1267 19.8169 17.2267 19.7769 17.32C19.7369 17.4133 19.7035 17.5133 19.6769 17.62C19.6635 17.66 19.6435 17.7 19.6169 17.74C19.6035 17.7667 19.5902 17.8067 19.5769 17.86C19.5635 17.8867 19.5502 17.92 19.5369 17.96C19.5369 18 19.5302 18.0333 19.5169 18.06L19.4569 18.3C19.4435 18.3267 19.4302 18.3667 19.4169 18.42C19.4035 18.46 19.3902 18.5 19.3769 18.54C19.3635 18.6333 19.3969 18.7133 19.4769 18.78V18.8C19.5035 18.8133 19.5235 18.8267 19.5369 18.84C19.5635 18.8533 19.5902 18.8733 19.6169 18.9C19.6302 18.8733 19.6502 18.8467 19.6769 18.82C19.7035 18.78 19.7235 18.7467 19.7369 18.72C19.7635 18.6133 19.7902 18.5067 19.8169 18.4C19.8435 18.2933 19.8702 18.1867 19.8969 18.08C19.8969 18.0533 19.9102 18.04 19.9369 18.04C19.9902 18.0133 20.0235 17.9733 20.0369 17.92C20.0502 17.8667 20.0635 17.8133 20.0769 17.76C20.0769 17.7333 20.0835 17.7133 20.0969 17.7C20.1102 17.6733 20.1169 17.6533 20.1169 17.64C20.1302 17.6267 20.1302 17.6133 20.1169 17.6C20.1169 17.5733 20.1235 17.5533 20.1369 17.54C20.1369 17.4867 20.1502 17.42 20.1769 17.34C20.2035 17.2733 20.2502 17.2067 20.3169 17.14C20.3169 17.1533 20.3169 17.1733 20.3169 17.2C20.3302 17.2133 20.3302 17.2267 20.3169 17.24C20.3169 17.28 20.2969 17.3333 20.2569 17.4C20.2035 17.5067 20.1635 17.6267 20.1369 17.76C20.1102 17.88 20.0702 17.9933 20.0169 18.1C19.9635 18.22 19.9235 18.3467 19.8969 18.48C19.8835 18.6133 19.8502 18.74 19.7969 18.86C19.7969 18.8733 19.7902 18.8867 19.7769 18.9C19.7769 18.9 19.7769 18.9067 19.7769 18.92C19.7102 18.9333 19.6769 18.96 19.6769 19C19.6769 19.04 19.6635 19.0933 19.6369 19.16C19.6369 19.1733 19.6302 19.1867 19.6169 19.2C19.6035 19.2133 19.5902 19.2333 19.5769 19.26C19.5502 19.2867 19.5369 19.3133 19.5369 19.34C19.5235 19.3667 19.5169 19.4 19.5169 19.44C19.5169 19.48 19.5102 19.5133 19.4969 19.54C19.4835 19.5533 19.4702 19.5733 19.4569 19.6C19.4569 19.6133 19.4502 19.6267 19.4369 19.64C19.3435 19.68 19.2969 19.76 19.2969 19.88C19.3102 19.9733 19.3035 20.0667 19.2769 20.16C19.2502 20.2533 19.2235 20.3533 19.1969 20.46C19.1835 20.5267 19.1702 20.5933 19.1569 20.66C19.1569 20.7267 19.1569 20.7933 19.1569 20.86C19.1435 20.9933 19.1302 21.12 19.1169 21.24C19.1035 21.36 19.0902 21.48 19.0769 21.6C19.0769 21.64 19.0635 21.6733 19.0369 21.7C19.0102 21.7133 18.9902 21.7333 18.9769 21.76C18.9369 21.8133 18.9035 21.8733 18.8769 21.94C18.8502 22.0067 18.8435 22.0867 18.8569 22.18L18.9169 22.68C18.9169 22.6933 18.9169 22.72 18.9169 22.76C18.9169 22.8 18.9102 22.8333 18.8969 22.86C18.8835 22.94 18.8702 23.02 18.8569 23.1C18.8435 23.18 18.8569 23.26 18.8969 23.34C18.9102 23.38 18.9169 23.42 18.9169 23.46C18.9302 23.54 18.9369 23.62 18.9369 23.7C18.9502 23.78 18.9635 23.86 18.9769 23.94V24.08C18.9635 24.16 18.9902 24.26 19.0569 24.38C19.0702 24.38 19.1035 24.3667 19.1569 24.34C19.1702 24.38 19.1769 24.44 19.1769 24.52C19.1902 24.56 19.1969 24.6067 19.1969 24.66C19.1969 24.7 19.1969 24.7333 19.1969 24.76V24.82C19.1969 24.82 19.1769 24.82 19.1369 24.82L18.9569 24.76C18.9435 24.76 18.9235 24.76 18.8969 24.76C18.8835 24.7467 18.8635 24.74 18.8369 24.74C18.7702 24.7 18.7302 24.6333 18.7169 24.54C18.7169 24.54 18.7102 24.54 18.6969 24.54C18.6969 24.54 18.6902 24.5333 18.6769 24.52C18.6635 24.52 18.6502 24.5267 18.6369 24.54C18.6235 24.54 18.6035 24.54 18.5769 24.54C18.5769 24.5533 18.5769 24.58 18.5769 24.62C18.5769 24.6467 18.5835 24.6733 18.5969 24.7C18.6369 24.74 18.6502 24.78 18.6369 24.82C18.6369 24.8467 18.6302 24.88 18.6169 24.92C18.5902 24.9867 18.5635 24.9867 18.5369 24.92C18.5235 24.9067 18.5169 24.88 18.5169 24.84C18.5169 24.7867 18.5102 24.7467 18.4969 24.72C18.4969 24.6933 18.4635 24.68 18.3969 24.68C18.3835 24.6667 18.3702 24.6733 18.3569 24.7C18.3569 24.7133 18.3569 24.7267 18.3569 24.74C18.3435 24.7667 18.3369 24.8067 18.3369 24.86C18.3102 24.9533 18.2635 25 18.1969 25C18.1569 25 18.1369 25.0267 18.1369 25.08C18.1235 25.1333 18.1102 25.18 18.0969 25.22C18.0969 25.2733 18.0635 25.3133 17.9969 25.34C17.9835 25.34 17.9769 25.36 17.9769 25.4C17.9635 25.4667 17.9169 25.5 17.8369 25.5C17.7969 25.5 17.7702 25.4867 17.7569 25.46C17.7569 25.4333 17.7502 25.4133 17.7369 25.4C17.7235 25.2533 17.7035 25.12 17.6769 25C17.6635 24.8667 17.6435 24.7333 17.6169 24.6C17.6035 24.5467 17.5902 24.5 17.5769 24.46C17.5635 24.4067 17.5435 24.3533 17.5169 24.3C17.4769 24.26 17.4502 24.24 17.4369 24.24C17.3969 24.24 17.3502 24.2733 17.2969 24.34C17.2435 24.3933 17.2169 24.44 17.2169 24.48C17.2169 24.5733 17.2102 24.6467 17.1969 24.7C17.1969 24.74 17.1569 24.7533 17.0769 24.74C17.0235 24.7267 16.9835 24.7533 16.9569 24.82C16.9569 24.86 16.9435 24.9067 16.9169 24.96C16.8902 24.9867 16.8769 25.0067 16.8769 25.02C16.8502 24.9933 16.8369 24.9667 16.8369 24.94C16.8235 24.8733 16.8035 24.8067 16.7769 24.74C16.7635 24.6733 16.7502 24.6067 16.7369 24.54C16.7369 24.5133 16.7302 24.4933 16.7169 24.48C16.7169 24.4667 16.7102 24.4467 16.6969 24.42C16.6835 24.4333 16.6702 24.4533 16.6569 24.48C16.6569 24.4933 16.6435 24.5067 16.6169 24.52C16.6169 24.5467 16.6035 24.56 16.5769 24.56C16.5502 24.56 16.5369 24.5467 16.5369 24.52C16.5369 24.4933 16.5302 24.4667 16.5169 24.44C16.5169 24.4 16.5435 24.3733 16.5969 24.36C16.6369 24.36 16.6569 24.3333 16.6569 24.28C16.6569 24.2133 16.6435 24.1533 16.6169 24.1C16.5902 24.0467 16.5569 23.9933 16.5169 23.94C16.5035 23.9933 16.4969 24.0467 16.4969 24.1C16.4969 24.14 16.4969 24.1867 16.4969 24.24C16.4835 24.2267 16.4702 24.22 16.4569 24.22C16.4569 24.1533 16.4502 24.08 16.4369 24C16.4369 23.92 16.4302 23.84 16.4169 23.76C16.4169 23.6933 16.4102 23.6267 16.3969 23.56C16.3969 23.48 16.3969 23.3933 16.3969 23.3C16.3969 23.2733 16.3969 23.2467 16.3969 23.22C16.3969 23.18 16.3969 23.1467 16.3969 23.12L16.4569 22.96C16.4569 22.8533 16.4569 22.76 16.4569 22.68C16.4702 22.6 16.4769 22.52 16.4769 22.44C16.4902 22.4133 16.5035 22.3867 16.5169 22.36C16.5302 22.3333 16.5369 22.3133 16.5369 22.3C16.5635 22.1933 16.5902 22.0867 16.6169 21.98C16.6435 21.8733 16.6635 21.7733 16.6769 21.68C16.7035 21.4 16.7235 21.12 16.7369 20.84C16.7502 20.56 16.7569 20.28 16.7569 20C16.7569 19.76 16.7302 19.5533 16.6769 19.38C16.6635 19.3 16.6435 19.22 16.6169 19.14C16.6035 19.0467 16.5635 18.9667 16.4969 18.9C16.4702 18.86 16.4635 18.8133 16.4769 18.76C16.5035 18.7067 16.5435 18.6733 16.5969 18.66C16.6635 18.6333 16.7102 18.58 16.7369 18.5C16.7635 18.42 16.7502 18.3533 16.6969 18.3L16.4569 18.02C16.3902 17.8733 16.3035 17.7333 16.1969 17.6C16.1702 17.56 16.1369 17.52 16.0969 17.48C16.0702 17.44 16.0369 17.4 15.9969 17.36C15.9835 17.3333 15.9635 17.3067 15.9369 17.28C15.9235 17.2533 15.9169 17.2333 15.9169 17.22C15.9302 17.1267 15.9169 17.0467 15.8769 16.98C15.8369 16.9133 15.7969 16.8467 15.7569 16.78C15.7035 16.66 15.6369 16.5467 15.5569 16.44C15.4902 16.3333 15.4302 16.2267 15.3769 16.12L15.0969 15.58C15.0569 15.5 15.0035 15.42 14.9369 15.34C14.8835 15.2467 14.8302 15.16 14.7769 15.08L14.4569 14.42C14.3769 14.3133 14.3035 14.2067 14.2369 14.1C14.1835 13.9933 14.1235 13.8933 14.0569 13.8C13.9902 13.6533 13.9102 13.5067 13.8169 13.36C13.7235 13.2133 13.6369 13.0733 13.5569 12.94C13.5035 12.8467 13.4435 12.76 13.3769 12.68C13.3235 12.6 13.2569 12.5133 13.1769 12.42C13.1235 12.3133 13.0635 12.22 12.9969 12.14C12.9435 12.0467 12.8835 11.9533 12.8169 11.86L12.7569 11.8C12.6635 11.7733 12.6035 11.7267 12.5769 11.66C12.5635 11.5933 12.5502 11.5333 12.5369 11.48C12.5369 11.3467 12.4969 11.2533 12.4169 11.2C12.3635 11.1467 12.3502 11.0733 12.3769 10.98V10.76C12.3769 10.6533 12.4369 10.6 12.5569 10.6C12.6769 10.6 12.7702 10.5667 12.8369 10.5C12.9035 10.4333 12.9635 10.36 13.0169 10.28C13.0435 10.2533 13.0635 10.2267 13.0769 10.2C13.1035 10.1733 13.1235 10.1533 13.1369 10.14C13.2035 10.14 13.2569 10.1333 13.2969 10.12H13.4369C13.5035 10.12 13.5569 10.12 13.5969 10.12C13.6502 10.12 13.7035 10.1267 13.7569 10.14C13.7835 10.14 13.8102 10.1467 13.8369 10.16C13.8769 10.1733 13.9035 10.1867 13.9169 10.2C13.9302 10.2133 13.9369 10.22 13.9369 10.22C13.9502 10.22 13.9569 10.22 13.9569 10.22C14.1435 10.22 14.2969 10.2867 14.4169 10.42C14.4435 10.4333 14.4902 10.4267 14.5569 10.4C14.6235 10.3733 14.6702 10.3533 14.6969 10.34C14.8302 10.26 14.9769 10.2333 15.1369 10.26C15.1635 10.26 15.1769 10.2733 15.1769 10.3C15.1902 10.3267 15.1969 10.3667 15.1969 10.42C15.1969 10.54 15.2169 10.6533 15.2569 10.76C15.3102 10.8667 15.3635 10.98 15.4169 11.1C15.4302 11.1267 15.4435 11.16 15.4569 11.2C15.4835 11.2267 15.5035 11.2533 15.5169 11.28C15.5302 11.3067 15.5235 11.3533 15.4969 11.42C15.4435 11.5 15.4435 11.5867 15.4969 11.68C15.5769 11.7467 15.6235 11.8533 15.6369 12C15.6502 12.1333 15.7035 12.2667 15.7969 12.4C15.8502 12.52 15.9302 12.6467 16.0369 12.78C16.0635 12.8333 16.0969 12.8867 16.1369 12.94C16.1769 12.98 16.2169 13.02 16.2569 13.06C16.2702 13.0733 16.2835 13.08 16.2969 13.08C16.3235 13.08 16.3435 13.0867 16.3569 13.1V13.08ZM19.6769 16.02C19.6769 16.02 19.6702 16.02 19.6569 16.02C19.6435 16.0067 19.6302 16 19.6169 16C19.6035 16.0267 19.5835 16.0533 19.5569 16.08C19.5302 16.1067 19.5102 16.1333 19.4969 16.16C19.4835 16.2133 19.4569 16.26 19.4169 16.3C19.3769 16.34 19.3369 16.38 19.2969 16.42C19.2569 16.4467 19.2302 16.5 19.2169 16.58C19.2169 16.6467 19.2235 16.7 19.2369 16.74C19.2769 16.8067 19.3169 16.8133 19.3569 16.76C19.3835 16.72 19.4035 16.6867 19.4169 16.66C19.4302 16.62 19.4435 16.5733 19.4569 16.52C19.4702 16.48 19.4835 16.4467 19.4969 16.42C19.5102 16.38 19.5235 16.34 19.5369 16.3C19.5769 16.2067 19.6235 16.1133 19.6769 16.02ZM21.7369 13.28C21.7235 13.2133 21.7035 13.1733 21.6769 13.16C21.6502 13.1333 21.6169 13.14 21.5769 13.18C21.5369 13.2333 21.4969 13.2867 21.4569 13.34C21.4169 13.3933 21.4035 13.4667 21.4169 13.56C21.4169 13.6133 21.4302 13.64 21.4569 13.64C21.5369 13.64 21.5769 13.6267 21.5769 13.6C21.6035 13.5333 21.6302 13.48 21.6569 13.44C21.6969 13.3867 21.7235 13.3333 21.7369 13.28ZM17.5569 16.04V15.92C17.5435 15.84 17.5169 15.7667 17.4769 15.7C17.4769 15.7 17.4569 15.68 17.4169 15.64C17.3902 15.6667 17.3769 15.6933 17.3769 15.72C17.3502 15.84 17.4102 15.9467 17.5569 16.04ZM22.8369 12.36L22.7369 12.24C22.7235 12.2533 22.7035 12.2733 22.6769 12.3C22.6635 12.3133 22.6635 12.3333 22.6769 12.36C22.6769 12.3733 22.6835 12.3867 22.6969 12.4C22.7102 12.4133 22.7235 12.4333 22.7369 12.46C22.7769 12.4333 22.8102 12.4 22.8369 12.36ZM16.3169 14.34C16.3169 14.3933 16.3302 14.4533 16.3569 14.52C16.3969 14.5867 16.4369 14.6333 16.4769 14.66C16.4902 14.5933 16.4769 14.54 16.4369 14.5C16.3969 14.4467 16.3569 14.3933 16.3169 14.34ZM20.0169 14.82C20.0169 14.8067 20.0102 14.8 19.9969 14.8C19.9435 14.9067 19.9435 14.98 19.9969 15.02C19.9969 14.98 19.9969 14.9467 19.9969 14.92C20.0102 14.88 20.0169 14.8467 20.0169 14.82ZM16.7369 22.56H16.7169C16.6769 22.6133 16.6835 22.6667 16.7369 22.72V22.56ZM15.9169 11.74C15.8902 11.7 15.8569 11.66 15.8169 11.62C15.7769 11.5667 15.7635 11.5067 15.7769 11.44C15.8035 11.48 15.8369 11.5267 15.8769 11.58C15.9169 11.62 15.9302 11.6733 15.9169 11.74ZM16.2169 12.18C16.2035 12.1533 16.1835 12.1333 16.1569 12.12C16.1435 12.0933 16.1302 12.0667 16.1169 12.04V11.9C16.1702 11.94 16.1969 11.9867 16.1969 12.04C16.1969 12.08 16.2035 12.1267 16.2169 12.18ZM13.0769 10.14H13.1369C13.1635 10.1267 13.1435 10.1267 13.0769 10.14ZM28.6071 19.8C28.6071 19.7867 28.6071 19.7867 28.6071 19.8V19.8ZM28.6071 19.8C28.5138 19.8 28.4338 19.8333 28.3671 19.9C28.3138 19.9533 28.2538 20.0067 28.1871 20.06C28.1205 20.1133 28.0605 20.1733 28.0071 20.24C27.9671 20.3067 27.9138 20.3733 27.8471 20.44C27.7938 20.4933 27.7405 20.54 27.6871 20.58C27.6338 20.62 27.5805 20.66 27.5271 20.7C27.4205 20.78 27.3605 20.8667 27.3471 20.96C27.3471 21 27.3271 21.02 27.2871 21.02C27.2471 21.02 27.2071 21.0067 27.1671 20.98L27.1071 21.18C27.0938 21.1933 27.0805 21.2067 27.0671 21.22C27.0538 21.2333 27.0405 21.2467 27.0271 21.26C27.0138 21.2733 26.9938 21.2933 26.9671 21.32C26.9538 21.3333 26.9471 21.3533 26.9471 21.38C26.9338 21.4333 26.9005 21.48 26.8471 21.52C26.8071 21.5467 26.7671 21.5733 26.7271 21.6L26.6071 21.74C26.5538 21.7933 26.5005 21.8467 26.4471 21.9C26.4071 21.9533 26.3938 22.02 26.4071 22.1C26.4205 22.1133 26.4205 22.1267 26.4071 22.14C26.3938 22.1533 26.3871 22.1667 26.3871 22.18C26.3605 22.2467 26.3471 22.28 26.3471 22.28C26.3738 22.3333 26.3605 22.38 26.3071 22.42C26.2671 22.4467 26.2338 22.4867 26.2071 22.54C26.1671 22.5 26.1471 22.48 26.1471 22.48C26.0271 22.4 25.9138 22.4 25.8071 22.48C25.6738 22.5333 25.5671 22.52 25.4871 22.44C25.4338 22.3867 25.3738 22.3333 25.3071 22.28C25.2405 22.2267 25.1738 22.1733 25.1071 22.12L24.9271 22.02C24.9538 21.98 24.9271 21.9333 24.8471 21.88C24.8205 21.8533 24.7938 21.8267 24.7671 21.8C24.7538 21.7733 24.7271 21.7533 24.6871 21.74C24.6338 21.7133 24.5805 21.6867 24.5271 21.66C24.4738 21.62 24.4205 21.5867 24.3671 21.56C24.3405 21.5467 24.3271 21.52 24.3271 21.48C24.3138 21.4533 24.2938 21.4267 24.2671 21.4C24.2671 21.3867 24.2605 21.38 24.2471 21.38C24.2471 21.3667 24.2471 21.3533 24.2471 21.34C24.2605 21.34 24.2738 21.34 24.2871 21.34C24.3005 21.3267 24.3138 21.3267 24.3271 21.34L24.6271 21.52C24.6805 21.56 24.7271 21.5733 24.7671 21.56C24.8205 21.5333 24.8605 21.5133 24.8871 21.5C24.9138 21.4467 24.9671 21.4133 25.0471 21.4C25.0738 21.4 25.0938 21.3933 25.1071 21.38C25.1205 21.3667 25.1338 21.3533 25.1471 21.34C25.1205 21.3267 25.1005 21.32 25.0871 21.32C25.0738 21.32 25.0538 21.3133 25.0271 21.3C25.0405 21.2733 25.0671 21.24 25.1071 21.2C25.0938 21.1867 25.0738 21.18 25.0471 21.18C25.0205 21.18 24.9938 21.1733 24.9671 21.16C25.0338 21.1467 25.0871 21.14 25.1271 21.14C25.1671 21.14 25.2138 21.14 25.2671 21.14C25.2671 21.2067 25.2738 21.2467 25.2871 21.26C25.3005 21.2467 25.3138 21.24 25.3271 21.24C25.3538 21.2267 25.3738 21.2133 25.3871 21.2C25.4138 21.1867 25.4338 21.18 25.4471 21.18C25.4605 21.18 25.4738 21.1733 25.4871 21.16C25.5138 21.1467 25.5271 21.1333 25.5271 21.12C25.5405 21.1067 25.5538 21.0933 25.5671 21.08C25.5938 21.0533 25.6205 21.04 25.6471 21.04C25.6738 21 25.7071 20.9667 25.7471 20.94C25.7871 20.9 25.8205 20.86 25.8471 20.82C25.8738 20.7933 25.8938 20.76 25.9071 20.72C25.9338 20.68 25.9538 20.64 25.9671 20.6C25.9805 20.5867 25.9738 20.5533 25.9471 20.5C25.9471 20.4733 25.9271 20.44 25.8871 20.4C25.9538 20.3733 26.0138 20.3467 26.0671 20.32C26.1205 20.2933 26.1538 20.2467 26.1671 20.18C26.1805 20.1533 26.2071 20.1333 26.2471 20.12C26.3005 20.0933 26.3471 20.0733 26.3871 20.06C26.4005 20.0867 26.4071 20.1133 26.4071 20.14C26.4071 20.1667 26.4138 20.1933 26.4271 20.22C26.4538 20.2867 26.4938 20.3 26.5471 20.26C26.5738 20.2333 26.6005 20.2133 26.6271 20.2C26.6538 20.1733 26.6805 20.1533 26.7071 20.14C26.7871 20.0867 26.8405 20.0267 26.8671 19.96C26.9071 19.88 26.9471 19.8067 26.9871 19.74C27.0138 19.7133 27.0071 19.7 26.9671 19.7C26.9271 19.7 26.9071 19.7067 26.9071 19.72C26.8938 19.7733 26.8405 19.8 26.7471 19.8C26.7071 19.8267 26.6738 19.86 26.6471 19.9C26.6071 19.9133 26.5671 19.9333 26.5271 19.96C26.5005 19.9867 26.4671 20.0133 26.4271 20.04L26.4071 20.02C26.4471 19.9533 26.4871 19.8933 26.5271 19.84C26.5805 19.7733 26.6271 19.7067 26.6671 19.64C26.6938 19.6133 26.7138 19.58 26.7271 19.54C26.7538 19.5 26.7805 19.46 26.8071 19.42C26.8071 19.4067 26.8271 19.38 26.8671 19.34C26.9071 19.3133 26.9405 19.2867 26.9671 19.26C27.0071 19.2333 27.0405 19.2067 27.0671 19.18C27.1071 19.1133 27.1405 19.0533 27.1671 19C27.1938 18.9333 27.2271 18.8733 27.2671 18.82C27.3071 18.7667 27.3538 18.7267 27.4071 18.7C27.4605 18.66 27.5138 18.6133 27.5671 18.56C27.6071 18.56 27.6271 18.5533 27.6271 18.54C27.6671 18.4867 27.7071 18.4333 27.7471 18.38C27.7871 18.3133 27.8271 18.2533 27.8671 18.2C27.8805 18.1867 27.8871 18.1667 27.8871 18.14C27.8871 18.1133 27.8938 18.0933 27.9071 18.08C27.9205 18.0667 27.9338 18.0533 27.9471 18.04C27.9605 18.0133 27.9738 17.9933 27.9871 17.98C28.0138 17.9533 28.0471 17.9267 28.0871 17.9C28.1271 17.8733 28.1538 17.84 28.1671 17.8C28.2338 17.72 28.2938 17.64 28.3471 17.56C28.4005 17.4667 28.4538 17.3733 28.5071 17.28C28.5205 17.2533 28.5205 17.2333 28.5071 17.22C28.5071 17.2067 28.5071 17.1933 28.5071 17.18C28.4805 17.0467 28.4538 16.94 28.4271 16.86C28.4138 16.78 28.3605 16.7467 28.2671 16.76C28.2538 16.7333 28.2338 16.7 28.2071 16.66C28.1805 16.62 28.1538 16.5867 28.1271 16.56C28.1005 16.5067 28.0671 16.48 28.0271 16.48C27.9738 16.52 27.9205 16.5333 27.8671 16.52C27.8271 16.4933 27.7805 16.4733 27.7271 16.46C27.8205 16.3267 27.7871 16.2267 27.6271 16.16C27.5738 16.12 27.5271 16.08 27.4871 16.04C27.4471 15.9867 27.4071 15.9333 27.3671 15.88C27.3138 15.8533 27.2605 15.82 27.2071 15.78C27.1671 15.74 27.1138 15.72 27.0471 15.72C26.9805 15.72 26.9138 15.7 26.8471 15.66C26.8205 15.6467 26.8071 15.62 26.8071 15.58C26.7938 15.5533 26.7871 15.5267 26.7871 15.5C26.7871 15.4733 26.7738 15.4533 26.7471 15.44C26.6938 15.4 26.6405 15.36 26.5871 15.32C26.5471 15.28 26.4938 15.2467 26.4271 15.22C26.3338 15.18 26.2671 15.1067 26.2271 15C26.2005 14.92 26.1671 14.88 26.1271 14.88C26.1005 14.8667 26.0405 14.88 25.9471 14.92C25.9471 14.8933 25.9405 14.88 25.9271 14.88C25.9271 14.8667 25.9271 14.8533 25.9271 14.84C25.9138 14.72 25.8471 14.6 25.7271 14.48C25.7138 14.4667 25.7005 14.4467 25.6871 14.42C25.6871 14.38 25.6738 14.3533 25.6471 14.34C25.5938 14.3133 25.5405 14.2867 25.4871 14.26C25.4338 14.2333 25.3738 14.2067 25.3071 14.18C25.3205 14.1133 25.3671 14.0933 25.4471 14.12C25.5005 14.1467 25.5405 14.1733 25.5671 14.2L25.6671 14.26C25.6805 14.2467 25.6871 14.2333 25.6871 14.22C25.6738 14.2067 25.6538 14.1733 25.6271 14.12C25.7071 14.1467 25.7671 14.1867 25.8071 14.24C25.8605 14.28 25.9005 14.3267 25.9271 14.38C26.0071 14.4867 26.0938 14.5 26.1871 14.42C26.2271 14.38 26.2405 14.3533 26.2271 14.34C26.2138 14.2467 26.1938 14.16 26.1671 14.08C26.1538 14 26.0805 13.9533 25.9471 13.94C25.9338 13.9267 25.9205 13.9067 25.9071 13.88C25.8938 13.84 25.8738 13.8067 25.8471 13.78C25.9138 13.7533 25.9671 13.7533 26.0071 13.78C26.0605 13.8067 26.1071 13.8333 26.1471 13.86C26.2271 13.8733 26.2671 13.9267 26.2671 14.02C26.2805 14.0467 26.3138 14.0667 26.3671 14.08C26.4205 14.0933 26.4671 14.1133 26.5071 14.14C26.5205 14.1133 26.5338 14.0933 26.5471 14.08C26.5605 14.0533 26.5738 14.0267 26.5871 14C26.6671 14.0533 26.7471 14.1067 26.8271 14.16C26.9205 14.2133 27.0005 14.2733 27.0671 14.34C27.0938 14.3533 27.1205 14.38 27.1471 14.42C27.1738 14.46 27.2005 14.4933 27.2271 14.52C27.2805 14.5333 27.3338 14.5467 27.3871 14.56C27.4405 14.5733 27.4938 14.5733 27.5471 14.56C27.6138 14.6533 27.6605 14.7067 27.6871 14.72C27.7138 14.72 27.7738 14.6933 27.8671 14.64C27.9071 14.6533 27.9405 14.6667 27.9671 14.68C28.0071 14.6933 28.0405 14.7133 28.0671 14.74H28.1271C28.2871 14.8333 28.4405 14.9067 28.5871 14.96C28.6538 14.9867 28.7138 15.0133 28.7671 15.04C28.8338 15.0667 28.8938 15.0933 28.9471 15.12C29.0538 15.1733 29.1538 15.2333 29.2471 15.3C29.3405 15.3667 29.4338 15.4333 29.5271 15.5C29.5271 15.5133 29.5271 15.5267 29.5271 15.54C29.5405 15.54 29.5471 15.54 29.5471 15.54C29.6005 15.5267 29.6338 15.5333 29.6471 15.56C29.6738 15.5867 29.6938 15.6067 29.7071 15.62L30.1671 16.02C30.2071 16.0467 30.2471 16.0733 30.2871 16.1C30.3271 16.1133 30.3671 16.1333 30.4071 16.16C30.4471 16.1733 30.4671 16.2067 30.4671 16.26C30.4671 16.3933 30.5405 16.4667 30.6871 16.48C30.7138 16.48 30.7405 16.4933 30.7671 16.52C30.7938 16.5333 30.8205 16.5467 30.8471 16.56C30.8738 16.5733 30.8938 16.5933 30.9071 16.62C30.9338 16.6467 30.9605 16.6733 30.9871 16.7C30.9605 16.7133 30.9271 16.7467 30.8871 16.8C30.9271 16.8133 30.9671 16.8267 31.0071 16.84C31.0471 16.84 31.0738 16.8533 31.0871 16.88C31.1138 16.8933 31.1338 16.92 31.1471 16.96C31.1738 16.9867 31.1938 17.0133 31.2071 17.04C31.2338 17.0533 31.2271 17.08 31.1871 17.12C31.2938 17.0933 31.3738 17.1267 31.4271 17.22C31.4405 17.2333 31.4538 17.2467 31.4671 17.26C31.4805 17.26 31.4938 17.2733 31.5071 17.3C31.5205 17.3133 31.5271 17.3333 31.5271 17.36C31.5271 17.3733 31.5338 17.3933 31.5471 17.42C31.5871 17.46 31.6205 17.5 31.6471 17.54C31.6738 17.5667 31.6671 17.6067 31.6271 17.66C31.6805 17.6867 31.7138 17.7 31.7271 17.7C31.7671 17.7 31.7871 17.7133 31.7871 17.74C31.8138 17.74 31.8071 17.76 31.7671 17.8C31.7138 17.8267 31.6605 17.8533 31.6071 17.88C31.5538 17.9067 31.5005 17.94 31.4471 17.98C31.4205 17.9933 31.3938 18.0133 31.3671 18.04C31.3538 18.0667 31.3338 18.0933 31.3071 18.12C31.2671 18.1467 31.2205 18.1667 31.1671 18.18C31.1271 18.1933 31.0871 18.2133 31.0471 18.24C31.0338 18.2533 31.0071 18.2667 30.9671 18.28C30.9405 18.2933 30.9271 18.3067 30.9271 18.32C30.9405 18.3733 30.9271 18.42 30.8871 18.46C30.8471 18.5 30.8071 18.5333 30.7671 18.56C30.7138 18.6 30.6605 18.64 30.6071 18.68C30.5671 18.7067 30.5205 18.7333 30.4671 18.76C30.3338 18.8267 30.2071 18.82 30.0871 18.74C30.1138 18.8067 30.1005 18.8467 30.0471 18.86C29.9938 18.8733 29.9471 18.9 29.9071 18.94C29.8805 18.9667 29.8471 18.9933 29.8071 19.02C29.7805 19.0467 29.7471 19.0867 29.7071 19.14C29.6938 19.02 29.6405 18.9933 29.5471 19.06C29.5338 19.0867 29.5138 19.1067 29.4871 19.12C29.4605 19.12 29.4338 19.1267 29.4071 19.14C29.3538 19.2867 29.3205 19.4133 29.3071 19.52C29.1871 19.5333 29.0938 19.5867 29.0271 19.68L28.8071 19.9C28.7938 19.9133 28.7538 19.92 28.6871 19.92C28.7538 19.8533 28.8138 19.7933 28.8671 19.74C28.9205 19.6733 28.9471 19.5933 28.9471 19.5C28.9338 19.5133 28.9138 19.5267 28.8871 19.54C28.8605 19.5533 28.8338 19.5733 28.8071 19.6C28.7138 19.5467 28.6405 19.58 28.5871 19.7C28.5738 19.7 28.5805 19.7333 28.6071 19.8ZM26.0871 21.08C26.1271 21.16 26.1338 21.2133 26.1071 21.24C26.0938 21.2533 26.0471 21.26 25.9671 21.26C25.9538 21.26 25.9405 21.2667 25.9271 21.28C25.9271 21.28 25.9205 21.28 25.9071 21.28C25.8271 21.2933 25.7738 21.3333 25.7471 21.4C25.7338 21.4533 25.7138 21.5067 25.6871 21.56C25.6605 21.64 25.6871 21.66 25.7671 21.62C25.8071 21.62 25.8671 21.5933 25.9471 21.54C25.9738 21.5267 26.0005 21.52 26.0271 21.52C26.0538 21.5067 26.0805 21.5 26.1071 21.5C26.2671 21.5 26.3605 21.4267 26.3871 21.28H26.3071C26.3338 21.1733 26.3338 21.1067 26.3071 21.08C26.2938 21.0533 26.2205 21.0533 26.0871 21.08ZM27.4071 19.84C27.4071 19.84 27.3938 19.8267 27.3671 19.8L27.2471 19.96C27.1938 20.0533 27.0938 20.12 26.9471 20.16C26.9338 20.1733 26.9138 20.18 26.8871 20.18C26.8738 20.18 26.8605 20.1933 26.8471 20.22L26.6671 20.46C26.6805 20.4733 26.6871 20.4867 26.6871 20.5C26.7005 20.5 26.7071 20.5 26.7071 20.5L26.5871 20.68C26.5871 20.68 26.6005 20.6933 26.6271 20.72C26.6538 20.7067 26.6871 20.7 26.7271 20.7C26.7671 20.6867 26.7938 20.6733 26.8071 20.66C26.8338 20.6467 26.8538 20.6267 26.8671 20.6C26.8805 20.56 26.8938 20.5333 26.9071 20.52C26.9471 20.4533 26.9805 20.3933 27.0071 20.34C27.0471 20.2867 27.0938 20.2333 27.1471 20.18C27.2005 20.1267 27.2471 20.0733 27.2871 20.02C27.3271 19.9533 27.3671 19.8933 27.4071 19.84ZM25.9271 20.98C25.9271 20.98 25.9205 20.98 25.9071 20.98C25.9071 20.9667 25.9005 20.96 25.8871 20.96C25.7805 20.9733 25.7071 21.0333 25.6671 21.14C25.6671 21.18 25.6738 21.2 25.6871 21.2C25.6871 21.2133 25.6938 21.22 25.7071 21.22C25.7338 21.22 25.7471 21.2133 25.7471 21.2C25.7738 21.1733 25.8005 21.14 25.8271 21.1C25.8671 21.06 25.9005 21.02 25.9271 20.98ZM27.5071 20.28C27.2938 20.32 27.2471 20.3867 27.3671 20.48L27.5071 20.28ZM25.5671 20.76C25.6205 20.6667 25.6938 20.6333 25.7871 20.66C25.7605 20.6733 25.7271 20.6933 25.6871 20.72C25.6605 20.7333 25.6338 20.7533 25.6071 20.78C25.5938 20.7667 25.5805 20.76 25.5671 20.76Z" fill="#E9E6DC"/>
</svg>
