<svg xmlns="http://www.w3.org/2000/svg" fill="none" stroke-linecap="square" stroke-miterlimit="10" viewBox="0 0 794.95 859.37"><clipPath id="a"><path d="M0 0h794.95v859.37H0V0z"/></clipPath><g clip-path="url(#a)"><path fill="none" d="M0 0h794.95v859.37H0zM407.538 126.449l-.063 212.44"/><path stroke="#ea9999" stroke-dasharray="8 6" stroke-linecap="butt" stroke-linejoin="round" stroke-width="2" d="M407.538 126.449l-.063 212.44"/><path fill="none" d="M414.614 153.606H550.74v40.41H414.614z"/><path fill="#000" d="M428.958 179.418q-2.844 0-4.438-2.328l.954-1.047q.812 1.156 1.671 1.625.86.469 1.907.469.797 0 1.422-.25.64-.266 1-.719.375-.469.375-1.078 0-.984-.829-1.484-.828-.5-2.296-.86-1.766-.406-2.704-1.187-.921-.797-.921-2.266 0-.953.53-1.703.532-.75 1.423-1.172.906-.437 2.03-.437 1.407 0 2.376.578.969.562 1.594 1.562l-.97.969q-.546-.86-1.296-1.344-.75-.484-1.734-.484-1.125 0-1.844.562-.719.563-.719 1.454 0 .859.656 1.343.657.485 2.172.813 1.797.422 2.844 1.219 1.063.796 1.063 2.187 0 1.047-.532 1.86-.531.812-1.5 1.265-.953.453-2.234.453zm7.725-.172v-7.797h-2.032v-1.265h2.032v-2.36h1.312v2.36h2.266v1.265h-2.266v7.797h-1.312zm6.727 3.985l1.531-3.735-4.203-9.312h1.484l3.11 6.937q.062.157.125.344.078.172.14.36.063-.141.11-.282l.125-.312 2.703-7.047h1.5l-3.656 9.062-1.563 3.985h-1.406zm8.048-3.985v-12.828h1.312v12.828h-1.312zm7.711.172q-1.36 0-2.422-.578-1.047-.594-1.64-1.656-.578-1.063-.578-2.422 0-1.39.562-2.453.578-1.078 1.594-1.688 1.031-.625 2.344-.625 1.218 0 2.14.563.938.562 1.438 1.547.5.968.468 2.25l-.015.609h-7.188q.094 1.469 1.016 2.344.922.86 2.437.86.657 0 1.282-.204.64-.219 1.406-.875l.672.953q-.61.594-1.547.985-.922.39-1.969.39zm-.156-8.172q-1.25 0-2.063.672-.812.656-1.015 1.938h5.797v-.11q-.032-.61-.36-1.187-.328-.594-.937-.953-.594-.36-1.422-.36zm8.896 8.172q-1.187 0-2.094-.422-.906-.422-1.468-1.156l.937-.812q.985 1.234 2.719 1.234.844 0 1.36-.375.53-.375.53-1.031 0-.563-.484-.922-.219-.172-.64-.328-.407-.157-1-.328-.97-.266-1.61-.547-.64-.297-1.015-.688-.516-.578-.516-1.469 0-.75.406-1.328.406-.578 1.125-.906.719-.344 1.625-.344.969 0 1.875.407.906.406 1.485 1.046l-.813.891q-.516-.547-1.156-.875-.625-.328-1.328-.328-.844 0-1.36.39-.5.376-.5 1 0 .5.39.829.25.187.688.359.438.156 1.094.328.75.219 1.281.438.547.203.891.5.86.656.86 1.812 0 .75-.438 1.36-.422.593-1.172.937-.734.328-1.672.328zm10.996-11.172q-.484 0-.75-.25-.25-.25-.25-.703 0-.437.25-.687.266-.266.75-.266.469 0 .719.25.265.25.265.703 0 .438-.265.703-.25.25-.72.25zm-.656 11v-9.062h1.328v9.062h-1.328zm3.97 0v-9.062h1.296l.031 1.547q.422-.735 1.297-1.235.875-.5 1.844-.5 1.516 0 2.281.922.766.922.766 2.813v5.515h-1.328v-5.422q0-2.656-2.14-2.593-.798 0-1.407.343-.61.344-.969.922-.36.563-.36 1.235v5.515h-1.312zm14.85 0v-12.828h1.312v5.375q.453-.797 1.312-1.297.875-.5 1.797-.5 1.563 0 2.328.922.766.922.766 2.813v5.515h-1.328v-5.422q0-2.64-2.156-2.593-.782 0-1.391.343-.61.344-.969.922-.36.563-.36 1.235v5.515h-1.312zm13.998.172q-1.36 0-2.422-.578-1.047-.594-1.64-1.656-.579-1.063-.579-2.422 0-1.39.562-2.453.579-1.078 1.594-1.688 1.031-.625 2.344-.625 1.219 0 2.14.563.938.562 1.438 1.547.5.968.469 2.25l-.016.609h-7.187q.093 1.469 1.015 2.344.922.86 2.438.86.656 0 1.281-.204.64-.219 1.406-.875l.672.953q-.61.594-1.547.985-.922.39-1.968.39zm-.157-8.172q-1.25 0-2.062.672-.813.656-1.016 1.938h5.797v-.11q-.031-.61-.36-1.187-.327-.594-.937-.953-.594-.36-1.422-.36zm9.444 8.172q-1.172 0-2.125-.61-.954-.624-1.516-1.687-.547-1.062-.547-2.422 0-1.359.563-2.421.578-1.079 1.546-1.672.97-.61 2.172-.61 1.094 0 1.938.5.86.5 1.312 1.297l.032-1.61h1.328v9.063h-1.344v-1.61q-.484.767-1.39 1.282-.891.5-1.97.5zm.296-1.265q.907 0 1.61-.438.719-.437 1.125-1.219.406-.781.406-1.812 0-.985-.406-1.766t-1.125-1.219q-.703-.437-1.61-.437-.921 0-1.625.437-.703.438-1.109 1.22-.39.78-.39 1.765 0 1.015.39 1.812.406.782 1.11 1.219.703.438 1.624.438zm10.603 1.265q-1.25 0-2.234-.61-.969-.609-1.531-1.671-.563-1.063-.563-2.438 0-1.343.563-2.406.578-1.062 1.546-1.672.97-.625 2.188-.625 1.031 0 1.906.485.89.468 1.375 1.156v-5.219h1.313v12.828h-1.297l-.047-1.531q-.422.719-1.313 1.219-.875.484-1.906.484zm.172-1.219q.906 0 1.61-.437.718-.453 1.124-1.234.407-.797.407-1.829 0-1.015-.407-1.796-.406-.797-1.125-1.25-.703-.454-1.609-.454-.922 0-1.625.454-.703.453-1.11 1.25-.39.78-.39 1.796t.39 1.813q.407.797 1.11 1.25.703.437 1.625.437z"/><path fill="#c9daf8" fill-rule="evenodd" d="M521.658 216.792h136.12v72.77c-68.06 0-68.06 27.728-136.12 11.974z"/><path fill="#000" d="M575.97 261.952q-2.594 0-4.578-1.11-1.985-1.11-3.11-3.078-1.125-1.969-1.125-4.515 0-1.907.657-3.485.671-1.578 1.875-2.734 1.218-1.172 2.859-1.813 1.64-.656 3.594-.656 1.765 0 3.437.688 1.672.671 2.797 1.968l-2.64 3q-.672-.765-1.579-1.218-.89-.454-2.047-.454-1.265 0-2.296.579-1.016.562-1.625 1.64-.61 1.063-.61 2.531 0 2.141 1.344 3.407 1.344 1.265 3.547 1.265 1.11 0 2.078-.453.969-.453 1.625-1.172l2.078 3.282q-.594.671-1.61 1.203-1 .53-2.218.828-1.203.297-2.453.297zm14.563 0q-2.594 0-4.344-.875-1.75-.891-3-2.485l2.594-2.922q1.203 1.579 2.438 2.141 1.234.547 2.484.547.938 0 1.531-.328.61-.344.61-1.016 0-.578-.5-.953-.485-.39-1.235-.61-.75-.234-1.515-.406-2.782-.593-4.157-1.89-1.359-1.297-1.359-3.438 0-1.562.89-2.718.907-1.172 2.36-1.829 1.469-.656 3.156-.656 2.547 0 4.032.781 1.484.782 2.406 2.125l-2.625 2.516q-.766-.89-1.703-1.328-.938-.453-1.938-.453-1.015 0-1.625.344-.594.328-.594.984 0 .5.422.844.422.328 1.063.53.656.204 1.36.345 1.75.343 3.077 1 1.328.64 2.078 1.687.75 1.031.75 2.578 0 1.766-.875 3-.859 1.219-2.359 1.86-1.5.625-3.422.625zm15.24 0q-2.594 0-4.344-.875-1.75-.891-3-2.485l2.594-2.922q1.203 1.579 2.438 2.141 1.234.547 2.484.547.937 0 1.531-.328.61-.344.61-1.016 0-.578-.5-.953-.485-.39-1.235-.61-.75-.234-1.515-.406-2.782-.593-4.157-1.89-1.359-1.297-1.359-3.438 0-1.562.89-2.718.907-1.172 2.36-1.829 1.469-.656 3.156-.656 2.547 0 4.031.781 1.485.782 2.407 2.125l-2.625 2.516q-.766-.89-1.703-1.328-.938-.453-1.938-.453-1.016 0-1.625.344-.594.328-.594.984 0 .5.422.844.422.328 1.063.53.656.204 1.36.345 1.75.343 3.077 1 1.328.64 2.078 1.687.75 1.031.75 2.578 0 1.766-.875 3-.859 1.219-2.359 1.86-1.5.625-3.422.625z"/><path fill="#434343" fill-rule="evenodd" d="M631.512 251.312l26.362-26.362v9.36h124.85v34.005h-124.85v9.36z"/><path fill="#fff" d="M659.155 257.172V245.97h4.25q1.516 0 2.688.719 1.187.703 1.859 1.969.687 1.265.687 2.922 0 1.64-.687 2.906-.672 1.265-1.86 1.984-1.171.703-2.687.703h-4.25zm4.172-9.968h-2.906v8.734h2.906q1.156 0 2.062-.531.907-.547 1.422-1.532.516-.984.516-2.296 0-1.313-.516-2.297-.515-.985-1.422-1.532-.906-.546-2.062-.546zm10.95 10.125q-1.234 0-2.202-.563-.954-.562-1.516-1.547-.563-.984-.563-2.25 0-1.25.563-2.234.562-.985 1.516-1.547.968-.563 2.203-.563 1.234 0 2.203.563.969.562 1.515 1.547.563.984.563 2.234 0 1.266-.563 2.25-.546.985-1.515 1.547-.969.563-2.203.563zm0-1.141q.891 0 1.563-.422.688-.422 1.063-1.14.39-.735.39-1.657 0-.937-.39-1.64-.375-.72-1.063-1.125-.672-.422-1.562-.422-.875 0-1.563.422-.687.406-1.078 1.125-.375.718-.375 1.64 0 .922.375 1.656.39.72 1.078 1.141.688.422 1.563.422zm7.69.984l-2.922-8.375h1.297l2.062 6.25 2.235-4.953h.734l2.187 4.875 2.079-6.172h1.28l-2.89 8.375h-.719l-2.343-5.359-2.266 5.36h-.734zm10.367 0v-8.375h1.203l.032 1.438q.375-.672 1.187-1.14.813-.47 1.703-.47 1.39 0 2.094.86.719.86.719 2.594v5.093h-1.235v-5.015q0-2.438-1.968-2.39-.735 0-1.297.327-.563.313-.89.844-.329.516-.329 1.14v5.094h-1.219zm9.264 0V245.33h1.218v11.843h-1.218zm7.112.157q-1.235 0-2.203-.563-.953-.562-1.516-1.547-.562-.984-.562-2.25 0-1.25.562-2.234.563-.985 1.516-1.547.968-.563 2.203-.563 1.234 0 2.203.563.969.562 1.516 1.547.562.984.562 2.234 0 1.266-.562 2.25-.547.985-1.516 1.547-.969.563-2.203.563zm0-1.141q.89 0 1.562-.422.688-.422 1.063-1.14.39-.735.39-1.657 0-.937-.39-1.64-.375-.72-1.063-1.125-.672-.422-1.562-.422-.875 0-1.563.422-.687.406-1.078 1.125-.375.718-.375 1.64 0 .922.375 1.656.39.72 1.078 1.141.688.422 1.563.422zm9.29 1.14q-1.094 0-1.984-.562-.875-.562-1.391-1.547-.5-.984-.5-2.234 0-1.266.516-2.25.53-.985 1.421-1.547.907-.563 2.016-.563 1 0 1.797.47.797.468 1.203 1.202l.031-1.5h1.22v8.375h-1.235v-1.484q-.438.703-1.282 1.172-.828.469-1.812.469zm.266-1.171q.828 0 1.484-.407.656-.406 1.031-1.125.375-.718.375-1.656 0-.922-.375-1.64-.375-.72-1.031-1.125-.656-.407-1.484-.407-.844 0-1.5.407-.641.406-1.016 1.125-.36.718-.36 1.64 0 .922.36 1.656.375.72 1.016 1.125.656.407 1.5.407zm9.795 1.172q-1.157 0-2.063-.547-.906-.563-1.422-1.547-.515-.985-.515-2.25 0-1.25.515-2.235.531-.984 1.422-1.546.906-.579 2.031-.579.953 0 1.766.454.812.437 1.25 1.062v-4.812h1.219v11.843h-1.203l-.032-1.406q-.39.656-1.218 1.11-.813.453-1.75.453zm.156-1.11q.828 0 1.484-.422t1.031-1.14q.375-.735.375-1.672 0-.953-.375-1.672-.375-.734-1.03-1.14-.657-.423-1.485-.423-.844 0-1.5.422-.656.407-1.031 1.141-.36.719-.36 1.672 0 .922.36 1.656.375.734 1.03 1.156.657.422 1.5.422zm15.979 1.11q-1.594 0-2.844-.735-1.25-.734-1.953-2.031-.703-1.313-.703-2.984 0-1.22.406-2.25.422-1.047 1.172-1.813.75-.781 1.75-1.203 1-.438 2.156-.438.797 0 1.563.266.765.25 1.406.688.656.421 1.062.984l-.859.906q-.61-.734-1.453-1.156-.844-.422-1.719-.422-1.187 0-2.14.578-.938.578-1.485 1.578-.547 1-.547 2.282 0 1.328.547 2.343.563 1.016 1.531 1.578.985.547 2.266.547.875 0 1.688-.359.828-.36 1.328-.953l.64 1.062q-.375.453-1 .797-.61.344-1.343.547-.72.188-1.47.188zm9.472 0q-2.625 0-4.093-2.141l.89-.969q.75 1.063 1.532 1.5.796.422 1.78.422.735 0 1.313-.234.578-.235.907-.657.343-.437.343-.984 0-.922-.765-1.375-.75-.469-2.11-.797-1.625-.375-2.484-1.094-.86-.734-.86-2.093 0-.89.485-1.578.5-.688 1.328-1.079.828-.406 1.875-.406 1.297 0 2.188.531.89.532 1.468 1.454l-.89.89q-.516-.797-1.203-1.234-.688-.453-1.594-.453-1.047 0-1.719.515-.656.516-.656 1.344 0 .797.61 1.25.609.438 2 .75 1.655.375 2.624 1.11.985.734.985 2.015 0 .984-.5 1.734-.485.75-1.375 1.172-.891.407-2.079.407zm9.744 0q-2.625 0-4.093-2.141l.89-.969q.75 1.063 1.532 1.5.796.422 1.78.422.735 0 1.313-.234.578-.235.907-.657.343-.437.343-.984 0-.922-.765-1.375-.75-.469-2.11-.797-1.625-.375-2.484-1.094-.86-.734-.86-2.093 0-.89.485-1.578.5-.688 1.328-1.079.828-.406 1.875-.406 1.297 0 2.188.531.89.532 1.468 1.454l-.89.89q-.516-.797-1.203-1.234-.688-.453-1.594-.453-1.047 0-1.719.515-.656.516-.656 1.344 0 .797.61 1.25.609.438 2 .75 1.655.375 2.624 1.11.985.734.985 2.015 0 .984-.5 1.734-.485.75-1.375 1.172-.891.407-2.079.407z"/><path fill="#f4cccc" fill-rule="evenodd" d="M364.624 432.792h107.127c-11.833 0-21.425 15.772-21.425 35.228 0 19.456 9.592 35.229 21.425 35.229H364.624c-11.833 0-21.425-15.773-21.425-35.229s9.592-35.228 21.425-35.228z"/><path fill="none" d="M343.197 444.587h128.552v48.473H343.197z"/><path fill="#000" d="M379.86 476.627V459.83h7.125q2.468 0 4.359 1.079 1.906 1.062 2.969 2.953 1.078 1.89 1.078 4.359 0 2.484-1.078 4.375-1.063 1.89-2.97 2.969-1.89 1.062-4.358 1.062h-7.125zm7.015-13.031h-2.687v9.266h2.687q1.86 0 3-1.282 1.14-1.296 1.14-3.359 0-2.062-1.14-3.344-1.14-1.281-3-1.281zm19.343 13.266q-1.906 0-3.516-.641-1.594-.656-2.781-1.828-1.172-1.172-1.828-2.75-.64-1.594-.64-3.484 0-1.907.64-3.5.656-1.594 1.828-2.766 1.187-1.172 2.781-1.813 1.61-.656 3.516-.656 1.922 0 3.515.656 1.61.641 2.782 1.813 1.187 1.172 1.828 2.766.656 1.593.656 3.5 0 1.875-.656 3.468-.64 1.594-1.828 2.766-1.172 1.172-2.782 1.828-1.593.64-3.515.64zm0-4.032q1.265 0 2.25-.609.984-.61 1.562-1.656.578-1.063.578-2.406 0-1.375-.578-2.422-.578-1.063-1.562-1.657-.985-.609-2.25-.609-1.281 0-2.266.61-.984.593-1.547 1.656-.562 1.047-.562 2.422 0 1.343.562 2.406.563 1.047 1.547 1.656.985.61 2.266.61zm11.873 3.797V459.83h3.813l4.734 7.657 4.782-7.657h3.671v16.797h-4.203v-4.968q0-1.344.047-2.516t.14-2.266l-3.75 5.797h-1.577l-3.625-5.719q.093 1.016.125 2.172.047 1.14.047 2.532v4.968h-4.204z"/><path fill="#f4cccc" fill-rule="evenodd" d="M541.197 432.791h121.358c-13.405 0-24.272 15.773-24.272 35.229s10.867 35.228 24.272 35.228H541.197c-13.404 0-24.271-15.772-24.271-35.228 0-19.456 10.867-35.229 24.271-35.229z"/><path fill="none" d="M516.883 444.587h145.638v48.472H516.883z"/><path fill="#000" d="M543.575 476.861q-2.594 0-4.578-1.11-1.985-1.109-3.11-3.077-1.125-1.97-1.125-4.516 0-1.906.657-3.485.671-1.578 1.875-2.734 1.218-1.172 2.859-1.812 1.64-.657 3.594-.657 1.765 0 3.437.688 1.672.672 2.797 1.969l-2.64 3q-.672-.766-1.579-1.22-.89-.452-2.047-.452-1.265 0-2.296.578-1.016.562-1.625 1.64-.61 1.063-.61 2.532 0 2.14 1.344 3.406t3.547 1.266q1.11 0 2.078-.454.969-.453 1.625-1.171l2.078 3.28q-.594.673-1.61 1.204-1 .531-2.218.828-1.203.297-2.453.297zm14.563 0q-2.594 0-4.344-.875-1.75-.89-3-2.484l2.594-2.922q1.203 1.578 2.438 2.14 1.234.547 2.484.547.937 0 1.531-.328.61-.344.61-1.016 0-.578-.5-.953-.485-.39-1.235-.609-.75-.234-1.515-.406-2.782-.594-4.157-1.89-1.359-1.298-1.359-3.438 0-1.563.89-2.72.907-1.171 2.36-1.827 1.469-.656 3.156-.656 2.547 0 4.031.78 1.485.782 2.407 2.126l-2.625 2.515q-.766-.89-1.703-1.328-.938-.453-1.938-.453-1.016 0-1.625.344-.594.328-.594.984 0 .5.422.844.422.328 1.063.531.656.203 1.36.344 1.75.344 3.077 1 1.328.64 2.078 1.688.75 1.03.75 2.578 0 1.765-.875 3-.859 1.218-2.359 1.859-1.5.625-3.422.625zm15.24 0q-2.594 0-4.344-.875-1.75-.89-3-2.484l2.594-2.922q1.203 1.578 2.438 2.14 1.234.547 2.484.547.937 0 1.531-.328.61-.344.61-1.016 0-.578-.5-.953-.485-.39-1.235-.609-.75-.234-1.515-.406-2.782-.594-4.157-1.89-1.359-1.298-1.359-3.438 0-1.563.89-2.72.907-1.171 2.36-1.827 1.469-.656 3.156-.656 2.547 0 4.031.78 1.485.782 2.407 2.126l-2.625 2.515q-.766-.89-1.703-1.328-.938-.453-1.938-.453-1.016 0-1.625.344-.594.328-.594.984 0 .5.422.844.422.328 1.063.531.656.203 1.36.344 1.75.344 3.077 1 1.328.64 2.078 1.688.75 1.03.75 2.578 0 1.765-.875 3-.859 1.218-2.359 1.859-1.5.625-3.422.625zm17.334 0q-1.906 0-3.516-.64-1.594-.657-2.781-1.829-1.172-1.172-1.828-2.75-.64-1.594-.64-3.484 0-1.906.64-3.5.656-1.594 1.828-2.766 1.187-1.172 2.781-1.812 1.61-.656 3.516-.656 1.922 0 3.515.656 1.61.64 2.782 1.812 1.187 1.172 1.828 2.766.656 1.594.656 3.5 0 1.875-.656 3.469-.64 1.593-1.828 2.765-1.172 1.172-2.782 1.828-1.593.641-3.515.641zm0-4.031q1.265 0 2.25-.61.984-.609 1.562-1.656.578-1.062.578-2.406 0-1.375-.578-2.422-.578-1.063-1.562-1.656-.985-.61-2.25-.61-1.281 0-2.266.61-.984.594-1.547 1.656-.562 1.047-.562 2.422 0 1.344.562 2.406.563 1.047 1.547 1.656.985.61 2.266.61zm11.873 3.797V459.83h3.813l4.734 7.656 4.781-7.656h3.672v16.797h-4.203v-4.97q0-1.343.047-2.515.047-1.172.14-2.265l-3.75 5.796h-1.577l-3.625-5.718q.093 1.015.125 2.172.046 1.14.046 2.53v4.97h-4.203z"/><path fill="none" d="M589.72 356.042l.03 76.756"/><path stroke="#666" stroke-linecap="butt" stroke-linejoin="round" stroke-width="2" d="M589.72 356.042l.026 64.756"/><path fill="#666" fill-rule="evenodd" stroke="#666" stroke-linecap="butt" stroke-width="2" d="M586.442 420.8l3.307 9.074 3.3-9.077z"/><path fill="#d2b3e0" fill-rule="evenodd" d="M334.638 699.818h145.67v60.881h-145.67z"/><path fill="#000" d="M375.95 737.178v-13.062h3.359v10.14h5.765v2.923h-9.125zm14.334.172q-1.218 0-2.203-.656-.984-.672-1.562-1.828-.563-1.172-.563-2.672 0-1.515.563-2.672.578-1.156 1.578-1.812 1-.657 2.281-.657.969 0 1.703.375.735.36 1.219.97v-1.141h3.11v9.922h-3.188v-1.141q-.5.578-1.25.953-.75.36-1.688.36zm.907-2.64q.984 0 1.546-.672.579-.688.579-1.844 0-1.14-.579-1.812-.562-.688-1.546-.688-.97 0-1.547.688-.563.672-.563 1.812 0 1.156.563 1.844.578.672 1.547.672zm8.82 6.765l2-4.672-4.407-9.546h3.563l1.937 4.625q.25.578.407 1.156.078-.188.14-.39.078-.22.172-.454l1.703-4.937h3.563l-4.235 9.922-1.703 4.296h-3.14zm15.023-4.109q-1.547 0-2.781-.672-1.22-.672-1.938-1.828-.703-1.156-.703-2.656 0-1.485.703-2.64.719-1.173 1.938-1.845 1.234-.672 2.78-.672 1.548 0 2.767.672 1.218.672 1.921 1.844.704 1.156.704 2.64 0 1.5-.704 2.657-.703 1.156-1.921 1.828-1.22.672-2.766.672zm0-2.703q.953 0 1.562-.688.61-.703.61-1.765 0-1.078-.61-1.766-.609-.703-1.562-.703-.953 0-1.578.703-.625.688-.625 1.766 0 1.062.625 1.765.625.688 1.578.688zm10.69 2.719q-1.641 0-2.579-1.047-.922-1.063-.922-2.969v-6.11h3.172v5.75q0 .829.407 1.298.406.468 1.14.468.735 0 1.203-.437.47-.453.47-1.157v-5.921h3.171v9.922h-2.969l-.094-1.235q-.484.656-1.296 1.047-.797.39-1.704.39zm9.48-.203v-7.188h-1.72v-2.734h1.72v-2.5h3.171v2.5h1.844v2.734h-1.844v7.188h-3.172z"/><path fill="#d2b3e0" fill-rule="evenodd" d="M334.638 610.324h145.67v60.882h-145.67z"/><path fill="#000" d="M353.506 647.685v-13.062h5.922q1.296 0 2.312.546 1.016.532 1.594 1.485.594.937.594 2.125 0 1.328-.641 2.344-.64 1.015-1.734 1.562l2.921 5h-3.828l-2.562-4.531h-1.39v4.531h-3.188zm3.187-7.047h2.39q.72 0 1.126-.453.422-.453.422-1.187 0-.735-.469-1.172-.469-.438-1.313-.438h-2.156v3.25zm14.008 7.235q-1.656 0-2.89-.657-1.22-.672-1.891-1.828-.672-1.156-.672-2.625 0-1.531.656-2.687.656-1.172 1.797-1.844 1.14-.672 2.594-.672 1.39 0 2.468.656 1.094.641 1.688 1.782.594 1.14.578 2.593l-.016.797h-6.703q.25.813.938 1.281.703.454 1.812.454.61 0 1.078-.172.485-.172 1.032-.61l1.468 2.094q-.937.766-1.922 1.11-.984.328-2.015.328zm-.36-7.704q-1.687 0-2.062 1.532h3.844v-.016q-.047-.656-.547-1.078-.485-.438-1.235-.438zm6.558 7.516v-9.922h2.969l.062 1.156q.532-.625 1.313-.984.797-.375 1.672-.375 1.687 0 2.562 1.031.89 1.032.89 3v6.094h-3.171v-5.844q0-1.672-1.438-1.64-.734 0-1.218.453-.485.453-.485 1.094v5.937H376.9zm15.665.203q-1.266 0-2.266-.656-.984-.672-1.562-1.828-.578-1.172-.578-2.688 0-1.484.578-2.64.578-1.172 1.578-1.844 1-.672 2.297-.672.828 0 1.578.313.765.312 1.265.812v-4.812h3.172v13.812h-2.906l-.094-1.047q-.484.547-1.297.906-.812.344-1.765.344zm.844-2.61q.984 0 1.546-.687.579-.687.579-1.875 0-1.156-.579-1.843-.562-.688-1.546-.688-.97 0-1.547.688-.563.687-.563 1.843 0 1.188.563 1.875.578.688 1.547.688zm12.46 2.595q-1.656 0-2.89-.657-1.22-.672-1.891-1.828-.672-1.156-.672-2.625 0-1.531.656-2.687.656-1.172 1.797-1.844 1.14-.672 2.594-.672 1.39 0 2.468.656 1.094.641 1.688 1.782.594 1.14.578 2.593l-.016.797h-6.703q.25.813.938 1.281.703.454 1.812.454.61 0 1.078-.172.485-.172 1.032-.61l1.468 2.094q-.937.766-1.922 1.11-.984.328-2.015.328zm-.36-7.704q-1.687 0-2.062 1.532h3.844v-.016q-.047-.656-.547-1.078-.485-.438-1.235-.438zm6.558 7.516v-9.922h2.984l.047 1.469q.516-.75 1.282-1.203.78-.469 1.656-.469.312 0 .61.063.296.046.546.125l-.86 3.484q-.202-.11-.562-.203-.36-.11-.765-.11-.782 0-1.282.516-.484.516-.484 1.36v4.89h-3.172zm15.488 0v-7.187h-1.718v-2.735h1.718v-2.5h3.172v2.5h1.844v2.735h-1.844v7.187h-3.172zm6.732 0v-9.922h2.984l.047 1.469q.516-.75 1.281-1.203.781-.469 1.656-.469.313 0 .61.063.297.046.547.125l-.86 3.484q-.203-.11-.562-.203-.36-.11-.766-.11-.781 0-1.281.516-.484.516-.484 1.36v4.89h-3.172zm12.961.188q-1.656 0-2.89-.657-1.22-.672-1.891-1.828-.672-1.156-.672-2.625 0-1.531.656-2.687.657-1.172 1.797-1.844 1.14-.672 2.594-.672 1.39 0 2.469.656 1.093.641 1.687 1.782.594 1.14.578 2.593l-.015.797h-6.703q.25.813.937 1.281.703.454 1.813.454.609 0 1.078-.172.484-.172 1.031-.61l1.469 2.094q-.938.766-1.922 1.11-.985.328-2.016.328zm-.36-7.704q-1.687 0-2.062 1.532h3.844v-.016q-.047-.656-.547-1.078-.484-.438-1.234-.438zm11.293 7.704q-1.656 0-2.89-.657-1.22-.672-1.891-1.828-.672-1.156-.672-2.625 0-1.531.656-2.687.656-1.172 1.797-1.844 1.14-.672 2.594-.672 1.39 0 2.468.656 1.094.641 1.688 1.782.594 1.14.578 2.593l-.016.797h-6.703q.25.813.938 1.281.703.454 1.812.454.61 0 1.078-.172.485-.172 1.032-.61l1.468 2.094q-.937.766-1.922 1.11-.984.328-2.015.328zm-.36-7.704q-1.687 0-2.062 1.532h3.844v-.016q-.047-.656-.547-1.078-.485-.438-1.235-.438z"/><path fill="#9ccfa1" fill-rule="evenodd" d="M334.638 789.311h145.67v60.882h-145.67z"/><path fill="#000" d="M383.943 826.672v-13.063h5.688q1.25 0 2.234.563.984.562 1.547 1.547.578.969.578 2.219 0 1.296-.578 2.312-.563 1-1.547 1.594-.984.578-2.234.578h-2.328v4.25h-3.36zm3.297-7.188h1.89q.594 0 1-.406.407-.422.407-1.094 0-.671-.406-1.046-.407-.391-1-.391h-1.89v2.937zm12.288 7.36q-1.218 0-2.203-.656-.984-.672-1.562-1.829-.563-1.171-.563-2.671 0-1.516.563-2.672.578-1.157 1.578-1.813 1-.656 2.281-.656.969 0 1.703.375.735.36 1.219.969v-1.14h3.11v9.92h-3.188v-1.14q-.5.578-1.25.953-.75.36-1.688.36zm.907-2.64q.984 0 1.547-.673.578-.687.578-1.843 0-1.141-.578-1.813-.563-.687-1.547-.687-.97 0-1.547.687-.563.672-.563 1.813 0 1.156.563 1.843.578.672 1.547.672zm9.637-9.376q-.875 0-1.359-.422t-.484-1.187q0-.688.484-1.125.5-.453 1.36-.453.874 0 1.374.422.5.406.5 1.156 0 .703-.5 1.156-.5.453-1.375.453zm-1.562 11.844v-9.922h3.156v9.922h-3.156zm5.972 0v-9.922h2.969l.062 1.156q.531-.625 1.313-.984.797-.375 1.672-.375 1.687 0 2.562 1.031.89 1.031.89 3v6.094h-3.171v-5.844q0-1.672-1.438-1.64-.734 0-1.218.453-.485.453-.485 1.093v5.938h-3.156zm12.727 0v-7.188h-1.718v-2.734h1.718v-2.5h3.172v2.5h1.844v2.734h-1.844v7.188h-3.172z"/><path fill="none" d="M407.473 671.206v28.598"/><path stroke="#666" stroke-linecap="butt" stroke-linejoin="round" stroke-width="2" d="M407.473 671.206v16.598"/><path fill="#666" fill-rule="evenodd" stroke="#666" stroke-linecap="butt" stroke-width="2" d="M404.17 687.804l3.303 9.077 3.304-9.077z"/><path fill="none" d="M407.473 760.7v28.598"/><path stroke="#666" stroke-linecap="butt" stroke-linejoin="round" stroke-width="2" d="M407.473 760.7v16.598"/><path fill="#666" fill-rule="evenodd" stroke="#666" stroke-linecap="butt" stroke-width="2" d="M404.17 777.298l3.303 9.076 3.304-9.076z"/><path fill="none" d="M589.74 503.248v63.969H412.418"/><path stroke="#666" stroke-linecap="butt" stroke-linejoin="round" stroke-width="2" d="M589.74 503.248v63.969H412.418"/><path fill="none" d="M407.475 503.249v27.702h.063v27.7"/><path stroke="#666" stroke-linecap="butt" stroke-linejoin="round" stroke-width="2" d="M407.475 503.249v27.702h.063v27.7"/><path fill="none" d="M407.472 356.01v38.391h.063v38.397"/><path stroke="#666" stroke-linecap="butt" stroke-linejoin="round" stroke-width="2" d="M407.472 356.01v38.391h.063v26.397"/><path fill="#666" fill-rule="evenodd" stroke="#666" stroke-linecap="butt" stroke-width="2" d="M404.232 420.798l3.303 9.076 3.304-9.076z"/><path fill="none" d="M417.428 189.811H589.71v26.992"/><path stroke="#666" stroke-linecap="butt" stroke-linejoin="round" stroke-width="2" d="M417.428 189.811H589.71v14.992"/><path fill="#666" fill-rule="evenodd" stroke="#666" stroke-linecap="butt" stroke-width="2" d="M586.408 204.803l3.303 9.076 3.304-9.076z"/><path fill="#c9daf8" fill-rule="evenodd" d="M339.414 10.068h136.12v72.77c-68.06 0-68.06 27.728-136.12 11.974z"/><path fill="#000" d="M374.257 54.994V38.197h4.328v6.5h6v-6.5h4.312v16.797h-4.312V48.54h-6v6.454h-4.328zm22.486 0V41.962h-5.015v-3.765h14.5v3.765h-5.157v13.032h-4.328zm12.313 0V38.197h3.813l4.734 7.656 4.782-7.656h3.671v16.797h-4.203v-4.97q0-1.343.047-2.515.047-1.172.14-2.265l-3.75 5.796h-1.577l-3.625-5.718q.093 1.015.125 2.172.047 1.14.047 2.53v4.97h-4.204zm21.12 0V38.197h4.328v13.03h7.407v3.767h-11.735z"/><path fill="none" d="M245.601 536.521h136.126v61.417H245.601z"/><path fill="#000" d="M265.07 562.161l-3.671-12.125h1.469l2.343 7.984q.188.641.313 1.188.14.531.234 1.047.157-.532.282-.907.125-.375.234-.687.11-.313.266-.703l2.046-5.172h1.282l2.078 5.234q.25.594.422 1.11.187.5.36 1.093.093-.421.14-.687.047-.266.14-.594.094-.344.297-1.015l2.328-7.891h1.485l-3.703 12.125h-1.125l-3.11-7.406-3 7.406h-1.11zm16.838.172q-1.172 0-2.125-.61-.953-.625-1.516-1.687-.547-1.063-.547-2.422 0-1.36.563-2.422.578-1.078 1.547-1.672.969-.609 2.172-.609 1.093 0 1.937.5.86.5 1.313 1.297l.031-1.61h1.328v9.063h-1.344v-1.61q-.484.766-1.39 1.282-.89.5-1.969.5zm.297-1.266q.906 0 1.61-.437.718-.438 1.124-1.219.406-.781.406-1.813 0-.984-.406-1.765-.406-.781-1.125-1.219-.703-.437-1.61-.437-.921 0-1.624.437-.703.438-1.11 1.219-.39.781-.39 1.765 0 1.016.39 1.813.407.781 1.11 1.219.703.437 1.625.437zm7.743-9.906q-.484 0-.75-.25-.25-.25-.25-.703 0-.438.25-.688.266-.265.75-.265.469 0 .719.25.266.25.266.703 0 .437-.266.703-.25.25-.719.25zm-.656 11v-9.063h1.328v9.063h-1.328zm5.22 0v-7.797h-2.032v-1.266h2.031v-2.359h1.313v2.36h2.266v1.265h-2.266v7.797h-1.313zm11.079 0v-7.766h-1.61v-1.203h1.61v-1.484q0-1 .656-1.656.672-.657 1.765-.657.547 0 1 .203.454.188.75.532l-.468 1.031q-.282-.281-.594-.406-.313-.14-.61-.14-1.156 0-1.156 1.108v1.47h2.297v1.202h-2.297v7.766h-1.343zm9.189.172q-1.328 0-2.375-.61-1.047-.625-1.656-1.687-.61-1.063-.61-2.438 0-1.343.61-2.406.61-1.078 1.656-1.672 1.047-.609 2.375-.609 1.344 0 2.39.61 1.048.593 1.641 1.671.594 1.063.594 2.406 0 1.375-.594 2.438-.593 1.063-1.64 1.688-1.047.609-2.391.609zm0-1.25q.953 0 1.688-.438.734-.453 1.156-1.234.422-.797.422-1.813 0-1-.422-1.765-.422-.781-1.156-1.219-.735-.453-1.688-.453t-1.703.453q-.734.438-1.156 1.219-.407.781-.407 1.765 0 1.016.407 1.813.422.781 1.156 1.234.75.438 1.703.438zm6.518 1.078v-9.063h1.313l.015 1.75q.375-.812 1.11-1.375.75-.562 1.703-.562.297 0 .547.047.265.047.437.11l-.36 1.468q-.452-.188-.906-.188-.78 0-1.359.375-.562.375-.875.985-.297.594-.297 1.328v5.125h-1.328zm11.848 0v-12.125h4.594q1.64 0 2.906.766 1.282.765 2.016 2.14.75 1.375.75 3.156 0 1.782-.75 3.157-.734 1.36-2.016 2.14-1.265.766-2.906.766h-4.594zm4.516-10.797h-3.14v9.469h3.14q1.266 0 2.234-.594.985-.594 1.532-1.656.562-1.063.562-2.485 0-1.421-.562-2.484-.547-1.062-1.532-1.656-.968-.594-2.234-.594zm13.392 10.969q-1.281 0-2.375-.453-1.094-.469-1.89-1.297-.798-.844-1.25-1.985-.438-1.14-.438-2.484 0-1.328.437-2.469.453-1.14 1.25-1.968.797-.844 1.891-1.313 1.094-.469 2.375-.469t2.375.47q1.094.468 1.89 1.312.813.828 1.25 1.968.438 1.141.438 2.47 0 1.343-.437 2.483-.438 1.141-1.25 1.985-.797.828-1.891 1.297-1.094.453-2.375.453zm0-1.344q1.312 0 2.328-.625 1.031-.625 1.61-1.719.593-1.109.593-2.53 0-1.407-.594-2.5-.578-1.11-1.609-1.735-1.016-.64-2.328-.64-1.328 0-2.344.64-1.015.625-1.61 1.734-.577 1.094-.577 2.5 0 1.422.578 2.531.594 1.094 1.61 1.72 1.015.624 2.343.624zm8.587 1.172v-12.125h1.344l4.328 7.047 4.406-7.047h1.219v12.125h-1.36v-5.531q0-1.235.032-2.25.03-1.016.109-1.985l-4 6.25h-.922l-3.922-6.25q.094.907.11 1.922.03 1.016.03 2.313v5.531h-1.374zM299.5 583.133q-1.296 0-2.328-.5-1.015-.516-1.61-1.39-.593-.891-.593-2 0-1.235.656-2.188.672-.969 1.954-1.531-.563-.922-.563-1.72 0-.89.453-1.593.469-.703 1.266-1.11.812-.406 1.86-.406 1.187 0 2.109.625.921.625 1.25 1.61l-1.047.656q-.344-.89-.922-1.266-.563-.375-1.375-.375-1.031 0-1.594.47-.562.468-.562 1.343 0 .562.343 1.156.36.594.828 1.156l.844.954 2.64 2.906q.688-1.11.907-2.672h1.281q-.281 2.14-1.343 3.61l1.937 2.093h-1.781l-1.063-1.11q-.703.61-1.593.954-.891.328-1.954.328zm-3.125-4.078q0 .828.438 1.469.437.64 1.187 1 .75.359 1.735.359.734 0 1.36-.234.64-.25 1.14-.704l-3.016-3.328q-.25-.281-.484-.562-.235-.281-.453-.516-1.907.688-1.907 2.516zm21.858 4.078q-1.734 0-3.094-.797-1.344-.797-2.11-2.203-.765-1.422-.765-3.234 0-1.313.453-2.438.453-1.14 1.25-1.969.813-.828 1.891-1.297 1.094-.468 2.36-.468.843 0 1.671.28.844.282 1.531.75.704.454 1.157 1.063l-.938.985q-.656-.797-1.578-1.25-.906-.453-1.844-.453-1.297 0-2.328.625-1.015.625-1.61 1.703-.593 1.078-.593 2.469 0 1.437.594 2.546.61 1.094 1.656 1.704 1.063.593 2.453.593.953 0 1.844-.39.89-.391 1.422-1.032l.703 1.157q-.422.484-1.094.859-.656.36-1.453.578-.781.219-1.578.219zm10.262 0q-2.843 0-4.437-2.328l.953-1.047q.812 1.156 1.672 1.625.86.469 1.906.469.797 0 1.422-.25.64-.266 1-.72.375-.468.375-1.077 0-.985-.828-1.485-.828-.5-2.297-.859-1.766-.406-2.703-1.187-.922-.797-.922-2.266 0-.953.531-1.703.531-.75 1.422-1.172.906-.438 2.031-.438 1.407 0 2.375.579.97.562 1.594 1.562l-.969.969q-.547-.86-1.297-1.344-.75-.484-1.734-.484-1.125 0-1.844.562-.718.563-.718 1.453 0 .86.656 1.344.656.484 2.172.813 1.797.421 2.843 1.218 1.063.797 1.063 2.188 0 1.047-.531 1.86-.532.812-1.5 1.265-.953.453-2.235.453zm10.553 0q-2.844 0-4.437-2.328l.953-1.047q.812 1.156 1.672 1.625.859.469 1.906.469.797 0 1.422-.25.64-.266 1-.72.375-.468.375-1.077 0-.985-.828-1.485-.829-.5-2.297-.859-1.766-.406-2.703-1.187-.922-.797-.922-2.266 0-.953.53-1.703.532-.75 1.423-1.172.906-.438 2.031-.438 1.406 0 2.375.579.969.562 1.594 1.562l-.969.969q-.547-.86-1.297-1.344-.75-.484-1.734-.484-1.125 0-1.844.562-.719.563-.719 1.453 0 .86.657 1.344.656.484 2.171.813 1.797.421 2.844 1.218 1.063.797 1.063 2.188 0 1.047-.532 1.86-.53.812-1.5 1.265-.953.453-2.234.453zm12.006 0q-1.281 0-2.375-.453-1.094-.469-1.89-1.297-.798-.844-1.25-1.984-.438-1.141-.438-2.485 0-1.328.437-2.469.453-1.14 1.25-1.968.797-.844 1.891-1.313 1.094-.469 2.375-.469t2.375.47q1.094.468 1.89 1.312.813.828 1.25 1.968.438 1.141.438 2.47 0 1.343-.437 2.484-.438 1.14-1.25 1.984-.797.828-1.891 1.297-1.094.453-2.375.453zm0-1.344q1.312 0 2.328-.625 1.031-.625 1.61-1.719.593-1.109.593-2.53 0-1.407-.594-2.5-.578-1.11-1.609-1.735-1.016-.64-2.328-.64-1.328 0-2.344.64-1.015.625-1.61 1.734-.577 1.094-.577 2.5 0 1.422.578 2.531.594 1.094 1.61 1.72 1.015.624 2.343.624zm8.587 1.172v-12.125h1.344l4.328 7.047 4.406-7.047h1.219v12.125h-1.36v-5.531q0-1.235.032-2.25.03-1.016.109-1.985l-4 6.25h-.922l-3.922-6.25q.094.907.11 1.922.03 1.016.03 2.313v5.531h-1.374z"/><path fill="#434343" fill-rule="evenodd" d="M189.982 30.369h136.41v-9.432l26.361 26.362-26.362 26.362V64.23h-136.41z"/><path fill="#fff" d="M200.622 53.16V41.955h4.25q1.516 0 2.688.719 1.187.703 1.86 1.969.687 1.265.687 2.921 0 1.641-.688 2.907-.672 1.265-1.86 1.984-1.171.703-2.687.703h-4.25zm4.172-9.97h-2.906v8.735h2.906q1.156 0 2.063-.531.906-.547 1.422-1.532.515-.984.515-2.297 0-1.312-.516-2.296-.515-.985-1.421-1.532-.907-.547-2.063-.547zm10.951 10.125q-1.234 0-2.203-.562-.953-.563-1.516-1.547-.562-.984-.562-2.25 0-1.25.562-2.234.563-.985 1.516-1.547.969-.563 2.203-.563t2.203.563q.969.562 1.516 1.547.562.984.562 2.234 0 1.266-.562 2.25-.547.984-1.516 1.547-.969.562-2.203.562zm0-1.14q.89 0 1.563-.422.687-.422 1.062-1.14.39-.735.39-1.657 0-.937-.39-1.64-.375-.72-1.062-1.126-.672-.421-1.563-.421-.875 0-1.562.421-.688.407-1.079 1.125-.375.72-.375 1.641 0 .922.375 1.656.391.72 1.079 1.141.687.422 1.562.422zm7.689.984l-2.922-8.375h1.297l2.062 6.25 2.235-4.953h.734l2.188 4.875 2.078-6.172h1.281l-2.89 8.375h-.72l-2.343-5.36-2.266 5.36h-.734zm10.368 0v-8.375h1.203l.03 1.438q.376-.672 1.188-1.14.813-.47 1.704-.47 1.39 0 2.093.86.72.86.72 2.593v5.094h-1.235v-5.015q0-2.438-1.97-2.391-.733 0-1.296.328-.562.313-.89.844-.329.515-.329 1.14v5.094h-1.218zm9.263 0V41.315h1.219V53.16h-1.22zm7.112.156q-1.234 0-2.203-.562-.953-.563-1.516-1.547-.562-.984-.562-2.25 0-1.25.562-2.234.563-.985 1.516-1.547.969-.563 2.203-.563t2.203.563q.969.562 1.516 1.547.562.984.562 2.234 0 1.266-.562 2.25-.547.984-1.516 1.547-.969.562-2.203.562zm0-1.14q.89 0 1.563-.422.687-.422 1.062-1.14.39-.735.39-1.657 0-.937-.39-1.64-.375-.72-1.062-1.126-.672-.421-1.563-.421-.875 0-1.562.421-.688.407-1.079 1.125-.375.72-.375 1.641 0 .922.375 1.656.391.72 1.079 1.141.687.422 1.562.422zm9.29 1.14q-1.094 0-1.984-.562-.875-.563-1.39-1.547-.5-.984-.5-2.234 0-1.266.515-2.25.531-.985 1.422-1.547.906-.563 2.015-.563 1 0 1.797.47.797.468 1.203 1.202l.032-1.5h1.218v8.375h-1.234v-1.484q-.438.703-1.281 1.172-.828.468-1.813.468zm.266-1.171q.828 0 1.484-.407.656-.406 1.031-1.125.375-.718.375-1.656 0-.922-.375-1.64-.375-.72-1.03-1.126-.657-.406-1.485-.406-.844 0-1.5.406-.64.407-1.016 1.125-.36.72-.36 1.641 0 .922.36 1.656.375.72 1.016 1.125.656.407 1.5.407zm9.795 1.171q-1.156 0-2.063-.546-.906-.563-1.422-1.547-.515-.985-.515-2.25 0-1.25.515-2.235.532-.984 1.422-1.547.907-.578 2.032-.578.953 0 1.765.453.813.438 1.25 1.063v-4.813h1.219V53.16h-1.203l-.031-1.406q-.391.656-1.22 1.11-.812.452-1.75.452zm.156-1.109q.828 0 1.484-.422.657-.422 1.032-1.14.375-.735.375-1.672 0-.953-.375-1.672-.375-.735-1.032-1.14-.656-.423-1.484-.423-.844 0-1.5.422-.656.406-1.031 1.14-.36.72-.36 1.673 0 .922.36 1.656.375.734 1.031 1.156.656.422 1.5.422zm11.338.953V41.956h1.266v5h6.234v-5h1.266V53.16h-1.266V48.19h-6.234v4.97h-1.266zm14.11 0V43.19h-3.218v-1.234h7.781v1.234h-3.312v9.97h-1.25zm6.69 0V41.956h1.235l4 6.516 4.062-6.516h1.14V53.16h-1.265v-5.11q0-1.124.032-2.062.03-.953.093-1.859l-3.672 5.781h-.859l-3.625-5.781q.078.86.094 1.797.031.937.031 2.125v5.11h-1.266zm13.728 0V41.956h1.266v9.969h5.375v1.234h-6.64z"/><path fill="#fff2cc" fill-rule="evenodd" d="M397.56 558.655l9.912 17.147 9.913-17.147z"/><path stroke="#000" stroke-linecap="butt" stroke-linejoin="round" d="M397.56 558.655l9.912 17.147 9.913-17.147z"/><path fill="#fff2cc" fill-rule="evenodd" d="M397.585 189.811l9.922-9.921 9.92 9.921-9.92 9.921z"/><path stroke="#000" stroke-linecap="butt" stroke-linejoin="round" d="M397.585 189.811l9.922-9.921 9.92 9.921-9.92 9.921z"/><path fill="none" d="M407.472 575.802v17.261h.063v17.259"/><path stroke="#666" stroke-linecap="butt" stroke-linejoin="round" stroke-width="2" d="M407.472 575.802v17.261h.063v5.259"/><path fill="#666" fill-rule="evenodd" stroke="#666" stroke-linecap="butt" stroke-width="2" d="M404.232 598.322l3.303 9.076 3.304-9.076z"/><path fill="#c9daf8" fill-rule="evenodd" d="M161.658 158.336h136.12v72.77c-68.06 0-68.06 27.727-136.12 11.974z"/><path fill="#000" d="M220.351 203.496q-1.89 0-3.265-.797-1.36-.813-2.125-2.219l2.453-2.516q.61.875 1.172 1.282.578.39 1.265.39.813 0 1.297-.547.5-.562.5-1.437v-7.453h-3.094v-3.735h9.891v3.735h-2.594v7.953q0 1.656-.734 2.86-.734 1.187-1.969 1.843-1.234.64-2.797.64zm17.478 0q-2.594 0-4.344-.875-1.75-.891-3-2.485l2.594-2.922q1.203 1.578 2.438 2.141 1.234.547 2.484.547.937 0 1.531-.328.61-.344.61-1.016 0-.578-.5-.953-.485-.39-1.235-.61-.75-.234-1.515-.406-2.782-.593-4.157-1.89-1.359-1.297-1.359-3.438 0-1.562.89-2.719.907-1.171 2.36-1.828 1.469-.656 3.156-.656 2.547 0 4.031.781 1.485.782 2.407 2.125l-2.625 2.516q-.766-.89-1.703-1.328-.938-.453-1.938-.453-1.016 0-1.625.343-.594.329-.594.985 0 .5.422.844.422.328 1.063.53.656.204 1.36.345 1.75.343 3.077 1 1.328.64 2.078 1.687.75 1.031.75 2.578 0 1.766-.875 3-.859 1.219-2.359 1.86-1.5.625-3.422.625z"/><path fill="#434343" fill-rule="evenodd" d="M12.226 178.636h136.41v-9.431l26.361 26.362-26.362 26.362v-9.431H12.225z"/><path fill="#fff" d="M22.866 201.427v-11.203h4.25q1.516 0 2.688.719 1.187.703 1.86 1.968.687 1.266.687 2.922 0 1.64-.688 2.906-.672 1.266-1.86 1.985-1.171.703-2.687.703h-4.25zm4.172-9.969h-2.906v8.735h2.906q1.156 0 2.063-.532.906-.547 1.422-1.53.515-.985.515-2.298 0-1.312-.515-2.297-.516-.984-1.422-1.53-.907-.548-2.063-.548zm10.951 10.125q-1.234 0-2.203-.562-.953-.563-1.516-1.547-.562-.985-.562-2.25 0-1.25.562-2.235.563-.984 1.516-1.546.969-.563 2.203-.563t2.203.563q.969.562 1.516 1.546.562.985.562 2.235 0 1.265-.562 2.25-.547.984-1.516 1.547-.969.562-2.203.562zm0-1.14q.89 0 1.563-.422.687-.422 1.062-1.14.39-.735.39-1.657 0-.938-.39-1.64-.375-.72-1.062-1.126-.672-.422-1.563-.422-.875 0-1.562.422-.688.406-1.079 1.125-.375.719-.375 1.64 0 .923.375 1.657.391.719 1.079 1.14.687.423 1.562.423zm7.689.984l-2.922-8.375h1.297l2.063 6.25 2.234-4.953h.734l2.188 4.875 2.078-6.172h1.281l-2.89 8.375h-.72l-2.343-5.36-2.266 5.36h-.734zm10.368 0v-8.375h1.203l.031 1.437q.375-.671 1.188-1.14.812-.469 1.703-.469 1.39 0 2.093.86.72.859.72 2.593v5.094h-1.235v-5.016q0-2.437-1.969-2.39-.734 0-1.297.328-.562.312-.89.844-.329.515-.329 1.14v5.094h-1.218zm9.263 0v-11.844h1.219v11.844h-1.22zm7.112.156q-1.234 0-2.203-.562-.953-.563-1.516-1.547-.562-.985-.562-2.25 0-1.25.562-2.235.563-.984 1.516-1.546.969-.563 2.203-.563 1.235 0 2.203.563.97.562 1.516 1.546.562.985.562 2.235 0 1.265-.562 2.25-.547.984-1.516 1.547-.968.562-2.203.562zm0-1.14q.89 0 1.563-.422.687-.422 1.062-1.14.39-.735.39-1.657 0-.938-.39-1.64-.375-.72-1.062-1.126-.672-.422-1.563-.422-.875 0-1.562.422-.688.406-1.078 1.125-.375.719-.375 1.64 0 .923.375 1.657.39.719 1.078 1.14.687.423 1.562.423zm9.29 1.14q-1.093 0-1.984-.562-.875-.563-1.39-1.547-.5-.985-.5-2.235 0-1.265.515-2.25.531-.984 1.422-1.546.906-.563 2.015-.563 1 0 1.797.469.797.469 1.203 1.203l.032-1.5h1.218v8.375h-1.234v-1.484q-.437.703-1.281 1.171-.828.47-1.813.47zm.266-1.172q.828 0 1.484-.406.657-.406 1.032-1.125t.375-1.656q0-.922-.375-1.64-.375-.72-1.032-1.126-.656-.406-1.484-.406-.844 0-1.5.406-.64.406-1.016 1.125-.359.719-.359 1.64 0 .923.36 1.657.374.719 1.015 1.125.656.406 1.5.406zm9.795 1.172q-1.156 0-2.063-.547-.906-.562-1.421-1.547-.516-.984-.516-2.25 0-1.25.516-2.234.53-.984 1.421-1.547.907-.578 2.032-.578.953 0 1.765.453.813.438 1.25 1.063v-4.813h1.22v11.844h-1.204l-.031-1.406q-.39.656-1.219 1.11-.813.452-1.75.452zm.156-1.11q.828 0 1.485-.421.656-.422 1.03-1.14.376-.735.376-1.673 0-.953-.375-1.671-.375-.735-1.031-1.141-.657-.422-1.485-.422-.844 0-1.5.422-.656.406-1.031 1.14-.36.72-.36 1.672 0 .922.36 1.657.375.734 1.031 1.156.656.422 1.5.422zm13.901 1.11q-1.062 0-1.922-.531-.844-.547-1.344-1.5l.844-.875q.61.953 1.172 1.312.578.344 1.25.344 1 0 1.61-.672.624-.687.624-1.75v-6.484h-2.046v-1.203H111v1.203h-1.64v6.594q0 1.015-.47 1.828-.453.812-1.25 1.281-.78.453-1.812.453zm10.847 0q-2.625 0-4.094-2.14l.89-.97q.75 1.063 1.532 1.5.797.423 1.781.423.735 0 1.313-.235.578-.234.906-.656.344-.437.344-.984 0-.922-.766-1.375-.75-.47-2.11-.797-1.624-.375-2.484-1.094-.86-.734-.86-2.094 0-.89.485-1.578.5-.687 1.328-1.078.829-.406 1.875-.406 1.297 0 2.188.531.89.531 1.469 1.453l-.891.89q-.516-.796-1.203-1.234-.688-.453-1.594-.453-1.047 0-1.719.516-.656.516-.656 1.344 0 .797.61 1.25.609.437 2 .75 1.656.375 2.625 1.11.984.733.984 2.015 0 .984-.5 1.734-.484.75-1.375 1.172-.89.406-2.078.406z"/><path fill="#fff2cc" fill-rule="evenodd" d="M156.917 317.003h145.669v60.882h-145.67z"/><path fill="#000" d="M207.378 343.551q-2.015 0-3.375-.687-1.36-.688-2.328-1.922l2.016-2.282q.937 1.235 1.89 1.672.97.422 1.938.422.719 0 1.187-.265.47-.266.47-.782 0-.453-.392-.75-.375-.297-.953-.468-.578-.188-1.172-.313-2.171-.469-3.234-1.469-1.062-1.015-1.062-2.672 0-1.218.703-2.109.703-.906 1.828-1.422 1.14-.515 2.453-.515 1.969 0 3.125.609 1.172.61 1.875 1.64l-2.031 1.97q-.594-.688-1.328-1.032-.735-.36-1.516-.36t-1.25.266q-.469.266-.469.766 0 .39.328.656t.828.422q.516.156 1.047.266 1.36.265 2.39.765 1.048.5 1.626 1.313.578.812.578 2.015 0 1.375-.672 2.329-.672.953-1.844 1.453-1.156.484-2.656.484zm11.566 0q-1.47 0-2.625-.672-1.141-.672-1.813-1.828-.656-1.172-.656-2.656 0-1.485.656-2.64.672-1.173 1.813-1.845 1.156-.671 2.625-.671 1.328 0 2.437.453 1.125.453 1.781 1.28l-1.718 2.048q-.375-.453-.938-.75-.562-.297-1.281-.297-1 0-1.64.687-.626.672-.626 1.72 0 1.03.625 1.734.64.687 1.64.687.72 0 1.267-.266.546-.265.953-.75l1.703 2.063q-.656.781-1.781 1.25-1.125.453-2.422.453zm5.83-.187v-9.922h2.984l.047 1.468q.516-.75 1.281-1.203.781-.468 1.656-.468.313 0 .61.062.297.047.547.125l-.86 3.484q-.203-.109-.562-.203-.36-.11-.766-.11-.781 0-1.281.517-.484.515-.484 1.359v4.89h-3.172zm10.403-11.844q-.875 0-1.36-.422-.484-.422-.484-1.188 0-.687.485-1.125.5-.453 1.36-.453.874 0 1.374.422.5.406.5 1.156 0 .704-.5 1.157-.5.453-1.375.453zm-1.562 11.844v-9.922h3.156v9.922h-3.156zm5.972 4.109v-14.031h2.984l.047 1.015q.484-.53 1.281-.86.813-.343 1.75-.343 1.266 0 2.235.656.984.641 1.546 1.813.579 1.172.579 2.672 0 1.484-.579 2.656-.562 1.156-1.562 1.828-.984.656-2.266.656-.828 0-1.578-.312-.75-.313-1.265-.813v5.063h-3.172zm5.218-6.594q.954 0 1.532-.672.578-.672.578-1.812 0-1.156-.578-1.828-.563-.672-1.532-.672-.984 0-1.562.672-.578.672-.578 1.828 0 1.14.578 1.812.578.672 1.562.672zm7.9 2.485v-7.188h-1.718v-2.734h1.719v-2.5h3.172v2.5h1.843v2.734h-1.843v7.188h-3.172zM184.412 365.364V352.3h9.25v2.813h-6.015v2.265h5.219v2.688h-5.22v2.484h6.235v2.813h-9.469zm10.877 0l3.594-5.079-3.5-4.843h3.765l1.672 2.578 1.313-2.578h3.734l-3.406 4.89 3.562 5.032h-3.75l-1.765-2.782-1.516 2.782h-3.703zm16.58.187q-1.657 0-2.891-.656-1.219-.672-1.89-1.828-.673-1.157-.673-2.625 0-1.532.656-2.688.657-1.172 1.797-1.844 1.141-.671 2.594-.671 1.39 0 2.469.656 1.094.64 1.687 1.781.594 1.14.578 2.594l-.015.797h-6.703q.25.812.937 1.28.703.454 1.813.454.61 0 1.078-.172.484-.172 1.031-.61l1.469 2.095q-.938.765-1.922 1.109-.984.328-2.016.328zm-.36-7.703q-1.688 0-2.063 1.531h3.844v-.015q-.047-.657-.547-1.079-.484-.437-1.234-.437zm10.933 7.703q-1.47 0-2.625-.672-1.141-.672-1.813-1.828-.656-1.172-.656-2.656 0-1.485.656-2.64.672-1.173 1.813-1.845 1.156-.671 2.625-.671 1.328 0 2.437.453 1.125.453 1.781 1.28l-1.718 2.048q-.375-.453-.938-.75-.562-.297-1.281-.297-1 0-1.64.687-.626.672-.626 1.72 0 1.03.625 1.734.64.687 1.64.687.72 0 1.266-.266.547-.265.954-.75l1.703 2.063q-.657.781-1.782 1.25-1.125.453-2.421.453zm9.189.016q-1.64 0-2.578-1.047-.922-1.063-.922-2.969v-6.11h3.172v5.75q0 .829.406 1.298.406.468 1.14.468.735 0 1.204-.437.469-.453.469-1.156v-5.922h3.171v9.922h-2.968l-.094-1.235q-.484.656-1.297 1.047-.797.39-1.703.39zm9.48-.203v-7.188h-1.719v-2.734h1.719v-2.5h3.172v2.5h1.843v2.734h-1.843v7.188h-3.172zm8.497-11.844q-.875 0-1.36-.422-.484-.422-.484-1.188 0-.687.484-1.125.5-.453 1.36-.453.875 0 1.375.422.5.406.5 1.156 0 .704-.5 1.157-.5.453-1.375.453zm-1.563 11.844v-9.922h3.156v9.922h-3.156zm10.675.187q-1.547 0-2.781-.672-1.219-.672-1.937-1.828-.704-1.156-.704-2.656 0-1.485.704-2.64.718-1.173 1.937-1.845 1.234-.671 2.781-.671 1.547 0 2.766.671 1.219.672 1.922 1.844.703 1.156.703 2.64 0 1.5-.703 2.657-.703 1.156-1.922 1.828-1.219.672-2.766.672zm0-2.703q.953 0 1.563-.688.61-.703.61-1.765 0-1.078-.61-1.766-.61-.703-1.563-.703t-1.578.703q-.625.688-.625 1.766 0 1.062.625 1.765.625.688 1.578.688zm7.33 2.516v-9.922h2.97l.062 1.156q.53-.625 1.312-.984.797-.375 1.672-.375 1.688 0 2.563 1.03.89 1.032.89 3v6.095h-3.172v-5.844q0-1.672-1.437-1.64-.735 0-1.219.452-.484.453-.484 1.094v5.938h-3.157z"/><path fill="#fff2cc" fill-rule="evenodd" d="M397.617 116.528l9.921-9.922 9.921 9.922-9.92 9.92z"/><path stroke="#000" stroke-linecap="butt" stroke-linejoin="round" d="M397.617 116.528l9.921-9.922 9.921 9.922-9.92 9.92z"/><path fill="none" d="M414.614 85.819H550.74v61.417H414.614z"/><path fill="#000" d="M428.958 111.63q-2.844 0-4.438-2.327l.954-1.047q.812 1.156 1.671 1.625.86.469 1.907.469.797 0 1.422-.25.64-.266 1-.72.375-.468.375-1.077 0-.985-.829-1.485-.828-.5-2.296-.86-1.766-.405-2.704-1.187-.921-.796-.921-2.265 0-.953.53-1.703.532-.75 1.423-1.172.906-.438 2.03-.438 1.407 0 2.376.578.969.563 1.594 1.563l-.97.969q-.546-.86-1.296-1.344-.75-.484-1.734-.484-1.125 0-1.844.562-.719.563-.719 1.453 0 .86.656 1.344.657.484 2.172.812 1.797.422 2.844 1.22 1.063.796 1.063 2.187 0 1.047-.532 1.859-.531.813-1.5 1.266-.953.453-2.234.453zm8.006 3.813l1.531-3.734-4.203-9.313h1.484l3.11 6.938q.062.156.125.344.078.172.14.359.063-.14.11-.281l.125-.313 2.703-7.047h1.5l-3.656 9.063-1.563 3.984h-1.406zm8.016-3.984v-9.063h1.297l.031 1.547q.422-.734 1.297-1.234t1.844-.5q1.516 0 2.281.922.766.922.766 2.812v5.516h-1.328v-5.422q0-2.656-2.14-2.594-.798 0-1.407.344-.61.344-.969.922-.36.562-.36 1.234v5.516h-1.312zm13.811.172q-1.281 0-2.297-.61-1-.625-1.578-1.687-.578-1.063-.578-2.422 0-1.344.578-2.406.578-1.063 1.594-1.672 1.015-.625 2.312-.625 1.141 0 2.094.469.953.468 1.531 1.28l-.765.938q-.5-.64-1.266-1.03-.766-.407-1.547-.407-.922 0-1.656.453-.734.438-1.156 1.219-.407.781-.407 1.781 0 1 .422 1.797.438.781 1.157 1.234.734.438 1.625.438 1.593 0 2.796-1.422l.782.953q-.61.781-1.594 1.25-.969.469-2.047.469zm5.32-.172V98.63h1.312v5.375q.453-.797 1.312-1.297.875-.5 1.797-.5 1.563 0 2.328.922.766.922.766 2.812v5.516h-1.328v-5.422q0-2.64-2.156-2.594-.782 0-1.39.344-.61.344-.97.922-.36.562-.36 1.234v5.516h-1.312zm9.998 0v-9.063h1.312l.016 1.75q.375-.812 1.11-1.375.75-.562 1.702-.562.297 0 .547.047.266.047.438.11l-.36 1.468q-.453-.188-.906-.188-.781 0-1.36.375-.562.375-.874.985-.297.594-.297 1.328v5.125h-1.328zm10.1.172q-1.33 0-2.376-.61-1.047-.625-1.656-1.687-.61-1.063-.61-2.438 0-1.343.61-2.406.61-1.078 1.656-1.672 1.047-.61 2.375-.61 1.344 0 2.39.61 1.048.594 1.641 1.672.594 1.063.594 2.406 0 1.375-.594 2.438-.593 1.062-1.64 1.687-1.047.61-2.39.61zm0-1.25q.952 0 1.687-.438.734-.453 1.156-1.234.422-.797.422-1.813 0-1-.422-1.765-.422-.781-1.156-1.219-.735-.453-1.688-.453t-1.703.453q-.734.438-1.156 1.219-.407.781-.407 1.765 0 1.016.407 1.813.422.781 1.156 1.234.75.438 1.703.438zm6.517 1.078v-9.063h1.297l.031 1.547q.422-.734 1.297-1.234t1.844-.5q1.516 0 2.281.922.766.922.766 2.812v5.516h-1.328v-5.422q0-2.656-2.14-2.594-.798 0-1.407.344-.61.344-.969.922-.36.562-.36 1.234v5.516h-1.312zm13.998.172q-1.328 0-2.375-.61-1.046-.625-1.656-1.687-.61-1.063-.61-2.438 0-1.343.61-2.406.61-1.078 1.656-1.672 1.047-.61 2.375-.61 1.344 0 2.391.61 1.047.594 1.64 1.672.594 1.063.594 2.406 0 1.375-.593 2.438-.594 1.062-1.64 1.687-1.048.61-2.392.61zm0-1.25q.954 0 1.688-.438.734-.453 1.156-1.234.422-.797.422-1.813 0-1-.422-1.765-.422-.781-1.156-1.219-.734-.453-1.688-.453-.953 0-1.703.453-.734.438-1.156 1.219-.406.781-.406 1.765 0 1.016.406 1.813.422.781 1.156 1.234.75.438 1.703.438zm9.722 1.25q-1.563 0-2.39-.938-.829-.953-.829-2.75v-5.547h1.328v5.282q0 2.765 2.281 2.765.735 0 1.344-.343.61-.344.953-.922.36-.578.36-1.282v-5.5h1.328v9.063h-1.313l-.047-1.563q-.422.75-1.25 1.25-.828.485-1.765.485zm9.883 0q-1.187 0-2.094-.422-.906-.422-1.468-1.156l.937-.813q.985 1.235 2.719 1.235.844 0 1.36-.375.53-.375.53-1.032 0-.562-.484-.922-.219-.171-.64-.328-.407-.156-1-.328-.97-.265-1.61-.547-.64-.297-1.015-.687-.516-.578-.516-1.469 0-.75.406-1.328.406-.578 1.125-.906.719-.344 1.625-.344.969 0 1.875.406t1.485 1.047l-.813.89q-.516-.546-1.156-.874-.625-.328-1.328-.328-.844 0-1.36.39-.5.375-.5 1 0 .5.39.828.25.188.688.36.438.156 1.094.328.75.219 1.281.437.547.203.891.5.86.657.86 1.813 0 .75-.438 1.36-.422.593-1.172.937-.734.328-1.672.328zM428.177 132.43q-1.172 0-2.094-.577-.906-.594-1.453-1.625l.906-.953q.656 1.046 1.281 1.437.625.375 1.36.375 1.062 0 1.734-.734.672-.75.672-1.907v-7.015h-2.219v-1.297h5.406v1.297h-1.78v7.14q0 1.11-.5 1.985t-1.36 1.375q-.844.5-1.953.5zm11.75 0q-2.844 0-4.438-2.327l.953-1.047q.813 1.156 1.672 1.625.86.469 1.906.469.797 0 1.422-.25.64-.266 1-.72.375-.468.375-1.077 0-.985-.828-1.485-.828-.5-2.297-.86-1.765-.405-2.703-1.187-.922-.796-.922-2.265 0-.953.531-1.703.532-.75 1.422-1.172.907-.438 2.032-.438 1.406 0 2.375.578.968.563 1.593 1.563l-.968.969q-.547-.86-1.297-1.344-.75-.484-1.735-.484-1.125 0-1.843.562-.72.563-.72 1.453 0 .86.657 1.344.656.484 2.172.812 1.797.422 2.844 1.22 1.062.796 1.062 2.187 0 1.047-.531 1.859-.531.813-1.5 1.266-.953.453-2.234.453zm12.154-11.171q-.484 0-.75-.25-.25-.25-.25-.703 0-.438.25-.688.266-.265.75-.265.469 0 .719.25.266.25.266.703 0 .437-.266.703-.25.25-.719.25zm-.656 11v-9.063h1.328v9.063h-1.328zm3.97 0v-9.063h1.296l.032 1.547q.421-.734 1.296-1.234t1.844-.5q1.516 0 2.281.922.766.922.766 2.812v5.516h-1.328v-5.422q0-2.656-2.14-2.594-.798 0-1.407.344-.61.344-.969.922-.359.562-.359 1.234v5.516h-1.313zm14.85 0V119.43h1.312v5.375q.453-.797 1.313-1.297.875-.5 1.796-.5 1.563 0 2.329.922.765.922.765 2.812v5.516h-1.328v-5.422q0-2.64-2.156-2.594-.781 0-1.39.344-.61.344-.97.922-.359.562-.359 1.234v5.516h-1.312zm13.998.172q-1.36 0-2.422-.578-1.047-.594-1.64-1.657-.579-1.062-.579-2.421 0-1.391.563-2.454.578-1.078 1.593-1.687 1.032-.625 2.344-.625 1.219 0 2.14.562.938.563 1.438 1.547.5.969.47 2.25l-.017.61h-7.187q.094 1.468 1.016 2.343.921.86 2.437.86.656 0 1.281-.203.641-.22 1.407-.875l.671.953q-.609.594-1.546.984-.922.39-1.97.39zm-.156-8.172q-1.25 0-2.063.672-.812.656-1.016 1.937h5.797v-.11q-.03-.608-.359-1.187-.328-.593-.938-.953-.593-.36-1.421-.36zm9.443 8.172q-1.172 0-2.125-.61-.953-.625-1.516-1.687-.547-1.063-.547-2.422 0-1.36.563-2.422.578-1.078 1.547-1.672.968-.61 2.172-.61 1.093 0 1.937.5.86.5 1.313 1.298l.03-1.61h1.329v9.063h-1.344v-1.61q-.484.766-1.39 1.282-.891.5-1.97.5zm.297-1.266q.906 0 1.609-.437.719-.438 1.125-1.22.406-.78.406-1.812 0-.984-.406-1.765-.406-.781-1.125-1.219-.703-.437-1.61-.437-.921 0-1.624.437-.703.438-1.11 1.219-.39.781-.39 1.765 0 1.016.39 1.813.407.781 1.11 1.219.703.437 1.625.437zm10.602 1.266q-1.25 0-2.234-.61-.969-.609-1.531-1.671-.563-1.063-.563-2.438 0-1.344.563-2.406.578-1.063 1.547-1.672.968-.625 2.187-.625 1.031 0 1.906.484.891.469 1.375 1.157v-5.22h1.313v12.829h-1.297l-.047-1.531q-.422.718-1.312 1.218-.875.485-1.907.485zm.172-1.219q.907 0 1.61-.437.718-.454 1.125-1.235.406-.797.406-1.828 0-1.016-.406-1.797-.407-.797-1.125-1.25-.703-.453-1.61-.453-.922 0-1.625.453t-1.11 1.25q-.39.781-.39 1.797t.39 1.813q.407.796 1.11 1.25.703.437 1.625.437z"/><path fill="none" d="M397.617 116.528H229.71v41.795"/><path stroke="#666" stroke-linecap="butt" stroke-linejoin="round" stroke-width="2" d="M397.617 116.528H229.71v29.795"/><path fill="#666" fill-rule="evenodd" stroke="#666" stroke-linecap="butt" stroke-width="2" d="M226.408 146.323l3.303 9.076 3.304-9.076z"/><path fill="none" d="M229.718 243.08l.031 73.92"/><path stroke="#666" stroke-linecap="butt" stroke-linejoin="round" stroke-width="2" d="M229.718 243.08l.026 61.92"/><path fill="#666" fill-rule="evenodd" stroke="#666" stroke-linecap="butt" stroke-width="2" d="M226.44 305.002l3.308 9.075 3.3-9.078z"/><path fill="none" d="M302.586 347.444H441.87v.063h139.267"/><path stroke="#666" stroke-linecap="butt" stroke-linejoin="round" stroke-width="2" d="M302.586 347.444H441.87v.063h127.267"/><path fill="#666" fill-rule="evenodd" stroke="#666" stroke-linecap="butt" stroke-width="2" d="M569.137 350.81l9.076-3.303-9.076-3.304z"/><path fill="#fff2cc" fill-rule="evenodd" d="M398.906 347.444a8.567 8.567 0 0117.134 0 8.567 8.567 0 11-17.134 0z"/><path stroke="#000" stroke-linecap="butt" stroke-linejoin="round" d="M398.906 347.444h0a8.567 8.567 0 018.566-8.567h0a8.567 8.567 0 018.567 8.567h0a8.567 8.567 0 01-8.567 8.566h0a8.567 8.567 0 01-8.566-8.566z"/><path fill="none" d="M407.474 94.812v8.318h.063v3.461"/><path stroke="#666" stroke-linecap="butt" stroke-linejoin="round" stroke-width="2" d="M407.474 94.812v8.318h.063v3.461"/><path fill="none" d="M339.475 232.025h136.126v61.417H339.475z"/><path fill="#980000" d="M380.163 257.665V245.54h5.297q1.156 0 2.062.516.922.515 1.453 1.437.531.906.531 2.063 0 1.203-.53 2.14-.532.922-1.454 1.469-.906.547-2.062.547h-2.172v3.953h-3.125zm3.078-6.672h1.75q.547 0 .922-.39.39-.391.39-1.016t-.39-.969q-.375-.36-.922-.36h-1.75v2.735zm11.415 6.828q-1.14 0-2.062-.61-.906-.624-1.438-1.702-.515-1.078-.515-2.47 0-1.405.515-2.468.532-1.078 1.454-1.687.937-.625 2.125-.625.906 0 1.578.343.687.344 1.125.907v-1.063h2.906v9.219h-2.969v-1.063q-.469.547-1.172.891-.687.328-1.547.328zm.829-2.437q.921 0 1.453-.625.531-.64.531-1.72 0-1.062-.531-1.687-.532-.64-1.453-.64-.907 0-1.438.64-.516.625-.516 1.688 0 1.078.516 1.719.531.625 1.438.625zm7.318 2.28v-9.218h2.766l.062 1.375q.453-.703 1.172-1.125.719-.437 1.547-.437.281 0 .562.047.282.046.5.125l-.797 3.234q-.187-.094-.515-.188-.328-.109-.703-.109-.735 0-1.203.5-.454.484-.454 1.25v4.547h-2.937zm11.132.173q-1.375 0-2.437-.422-1.047-.438-1.657-1.172l1.766-1.531q.531.547 1.219.797.687.234 1.265.234.454 0 .688-.172.25-.187.25-.484 0-.328-.297-.5-.312-.172-1.453-.469-1.594-.406-2.36-1.156-.359-.344-.546-.797-.188-.453-.188-1.016 0-.89.516-1.53.515-.657 1.375-1 .86-.36 1.828-.36 1.156 0 2.156.375 1 .375 1.735 1.015l-1.532 1.703q-.453-.406-1.11-.718-.64-.313-1.25-.313-.905 0-.905.656 0 .36.375.579.156.078.53.218.392.125 1.063.313.813.219 1.391.515.594.282.953.657.547.61.547 1.5t-.516 1.593q-.5.688-1.39 1.094-.89.39-2.016.39zm9.91 0q-1.53 0-2.671-.61-1.14-.625-1.766-1.687-.61-1.078-.61-2.453 0-1.422.595-2.5.609-1.078 1.671-1.703 1.063-.625 2.407-.625 1.297 0 2.297.61 1.015.593 1.562 1.655.563 1.063.547 2.407l-.016.75h-6.234q.234.75.875 1.187.656.422 1.672.422.578 0 1.015-.156.454-.172.954-.578l1.359 1.953q-.86.703-1.781 1.015-.922.313-1.875.313zm-.327-7.156q-1.579 0-1.922 1.421h3.578v-.015q-.047-.61-.5-1-.453-.406-1.156-.406zm6.091 6.984v-9.219h2.766l.062 1.375q.454-.703 1.172-1.125.72-.437 1.547-.437.281 0 .563.047.281.046.5.125l-.797 3.234q-.188-.094-.516-.188-.328-.109-.703-.109-.734 0-1.203.5-.453.484-.453 1.25v4.547h-2.938zM379.636 278.652q-.875 0-1.64-.312-.75-.328-1.22-.844l-.078.953h-2.703v-12.812h2.938v4.515q.468-.484 1.156-.78.703-.313 1.469-.313 1.187 0 2.11.625.937.625 1.468 1.703.531 1.078.531 2.469 0 1.406-.531 2.484-.516 1.078-1.422 1.703-.906.61-2.078.61zm-.813-2.453q.907 0 1.438-.625.547-.64.547-1.718 0-1.079-.547-1.704-.531-.64-1.438-.64-.906 0-1.437.64-.531.625-.531 1.704 0 1.078.53 1.718.532.625 1.438.625zm6.66 2.266v-12.828h2.938v12.828h-2.937zm9.593.172q-1.437 0-2.578-.625-1.125-.625-1.781-1.688-.657-1.078-.657-2.468 0-1.391.657-2.47.656-1.077 1.78-1.702 1.142-.625 2.579-.625 1.438 0 2.578.625t1.781 1.703q.657 1.078.657 2.469 0 1.39-.657 2.468-.64 1.063-1.78 1.688-1.141.625-2.579.625zm0-2.516q.89 0 1.453-.64.578-.641.578-1.625 0-1-.578-1.641-.562-.656-1.453-.656-.875 0-1.469.656-.578.64-.578 1.64 0 .985.578 1.626.594.64 1.469.64zm10.88 2.516q-1.36 0-2.438-.625-1.062-.625-1.672-1.703-.609-1.078-.609-2.453 0-1.391.61-2.47.609-1.077 1.671-1.702 1.078-.625 2.438-.625 1.234 0 2.265.422 1.047.421 1.657 1.187l-1.594 1.906q-.344-.422-.875-.687-.531-.281-1.188-.281-.937 0-1.53.64-.579.625-.579 1.594 0 .953.578 1.61.594.64 1.531.64.657 0 1.172-.25.516-.25.89-.703l1.579 1.922q-.61.734-1.656 1.156-1.047.422-2.25.422zm5.416-.172v-12.828h2.937v6.734l3.016-3.125h3.875l-4.266 3.985 4.14 5.234h-3.452l-2.594-3.438-.719.672v2.766h-2.937zm15.03.172q-1.532 0-2.672-.61-1.14-.625-1.766-1.687-.61-1.078-.61-2.453 0-1.422.594-2.5.61-1.078 1.672-1.703 1.063-.625 2.407-.625 1.296 0 2.296.61 1.016.593 1.563 1.655.562 1.063.547 2.407l-.016.75h-6.234q.234.75.875 1.187.656.422 1.672.422.578 0 1.015-.156.453-.172.953-.578l1.36 1.953q-.86.703-1.781 1.015-.922.313-1.875.313zm-.329-7.156q-1.578 0-1.921 1.421h3.578v-.015q-.047-.61-.5-1-.453-.406-1.157-.406zm9.514 7.171q-1.172 0-2.094-.609-.922-.625-1.453-1.703t-.531-2.484q0-1.391.531-2.47.531-1.077 1.453-1.702.938-.625 2.14-.625.767 0 1.47.297.703.296 1.172.75v-4.47h2.953v12.829h-2.703l-.094-.969q-.453.5-1.203.828-.75.328-1.641.328zm.781-2.421q.922 0 1.453-.641.532-.64.532-1.734 0-1.079-.532-1.72-.53-.64-1.453-.64-.89 0-1.422.64-.53.641-.53 1.72 0 1.093.53 1.734.532.64 1.422.64z"/><path fill="#fff2cc" fill-rule="evenodd" d="M581.152 347.475a8.567 8.567 0 0117.134 0 8.567 8.567 0 01-17.134 0z"/><path stroke="#000" stroke-linecap="butt" stroke-linejoin="round" d="M581.152 347.475h0a8.567 8.567 0 018.567-8.567h0a8.567 8.567 0 018.567 8.567h0a8.567 8.567 0 01-8.567 8.567h0a8.567 8.567 0 01-8.567-8.567z"/><path fill="none" d="M589.718 301.536v37.385"/><path stroke="#ea9999" stroke-dasharray="8 6" stroke-linecap="butt" stroke-linejoin="round" stroke-width="2" d="M589.718 301.536v37.385"/></g></svg>