<svg xmlns="http://www.w3.org/2000/svg" viewBox="0 0 820 200"><style>.svg-label,.svg-tag{dominant-baseline:central}.svg-tag{font-weight:700;font-family:monospace;font-size:13px}.svg-label{font-family:sans-serif;font-size:10px}.parser{stroke:#6eae00;fill:#6eae00}.fetch{stroke:#0035ff;fill:#0035ff}.execution{stroke:red;fill:red}.progress{stroke-width:2}.progress.parser:not(.first){marker-start:url(#parser-marker)}.progress.parser:not(.last){marker-end:url(#parser-marker)}.progress.fetch:not(.first){marker-start:url(#fetch-marker)}.progress.fetch:not(.last){marker-end:url(#fetch-marker)}.progress.execution:not(.first){marker-start:url(#execution-marker)}.progress.execution:not(.last){marker-end:url(#execution-marker)}marker&gt;circle{stroke-width:0}.connector{stroke:#cecece;stroke-width:1}</style><path d="M0 33.5h820M0 66.5h820M0 99.5h820m-820 33h820M245.5 1v28m0 9v24m0 6v27m0 9v24m0 9v28" stroke="#6a9400" stroke-dasharray="1,1"></path><defs><marker id="parser-marker" markerWidth="3" markerHeight="3" refX="1.5" refY="1.5"><circle cx="1.5" cy="1.5" r="1.5" class="parser"></circle></marker><marker id="fetch-marker" markerWidth="3" markerHeight="3" refX="1.5" refY="1.5"><circle cx="1.5" cy="1.5" r="1.5" class="fetch"></circle></marker><marker id="execution-marker" markerWidth="3" markerHeight="3" refX="1.5" refY="1.5"><circle cx="1.5" cy="1.5" r="1.5" class="execution"></circle></marker></defs><text x="12" y="16.75" class="svg-tag">&lt;script&gt;</text><text y="9" class="svg-label" transform="translate(252)">Scripting:</text><text y="24" class="svg-label" transform="translate(252)">HTML Parser:</text><path class="connector" d="M509 9v15M656 9v15"></path><path class="parser progress first" d="M358 24h151"></path><path class="fetch progress" d="M509 9h97"></path><path class="execution progress" d="M606 9h50"></path><path class="parser progress last" d="M656 24h128"></path><text x="12" y="16.75" class="svg-tag" transform="translate(0 33)">&lt;script defer&gt;</text><text y="9" class="svg-label" transform="translate(252 33)">Scripting:</text><text y="24" class="svg-label" transform="translate(252 33)">HTML Parser:</text><path class="connector" d="M736 42v15"></path><path class="parser progress first" d="M358 57h378"></path><path class="fetch progress" d="M509 42h97"></path><path class="execution progress last" d="M736 42h48"></path><g><text x="12" y="16.75" class="svg-tag" transform="translate(0 66)">&lt;script async&gt;</text><text y="9" class="svg-label" transform="translate(252 66)">Scripting:</text><text y="24" class="svg-label" transform="translate(252 66)">HTML Parser:</text><path class="connector" d="M606 75v15m50-15v15"></path><path class="parser progress first" d="M358 90h248"></path><path class="fetch progress" d="M509 75h97"></path><path class="execution progress" d="M606 75h50"></path><path class="parser progress last" d="M656 90h128"></path></g><g><text x="12" y="16.75" class="svg-tag" transform="translate(0 99)">&lt;script type="module"&gt;</text><text y="9" class="svg-label" transform="translate(252 99)">Scripting:</text><text y="24" class="svg-label" transform="translate(252 99)">HTML Parser:</text><path class="connector" d="M736 108v15"></path><path class="parser progress first" d="M358 123h378"></path><path class="fetch progress" d="M509 108h97m0 0h20m-20 0l20 7.5m0 0h20m0 0h20m-20 0l20-7.5"></path><path class="execution progress last" d="M736 108h48"></path></g><g><text x="12" y="16.75" class="svg-tag" transform="translate(0 132)">&lt;script type="module" async&gt;</text><text y="9" class="svg-label" transform="translate(252 132)">Scripting:</text><text y="24" class="svg-label" transform="translate(252 132)">HTML Parser:</text><path class="connector" d="M666 141v15m50-15v15"></path><path class="parser progress first" d="M358 156h308"></path><path class="fetch progress" d="M509 141h97m0 0h20m-20 0l20 7.5m0 0h20m0 0h20m-20 0l20-7.5"></path><path class="execution progress" d="M666 141h50"></path><path class="parser progress last" d="M716 156h68"></path></g><g class="legend" transform="translate(357.5 172)"><circle cx="3" cy="3" r="3" class="parser"></circle><text x="9" y="3" class="svg-label">parser</text><circle cx="50" cy="3" r="3" class="fetch"></circle><text x="56" y="3" class="svg-label">fetch</text><circle cx="90" cy="3" r="3" class="execution"></circle><text x="96" y="3" class="svg-label">execution</text></g><text x="782" y="175" text-anchor="end" class="svg-label">runtime →</text></svg>
