<svg xmlns="http://www.w3.org/2000/svg" width="1200" height="2130" role="img" version="1.1" viewBox="0 0 1200 2130"><g fill="none" fill-rule="evenodd" stroke="none" stroke-width="1"><title>An element with a bottom margin of 30px followed by a sibling element with a top margin of 30px will have their margins collapsed into a total margin of 30px between them.</title><rect width="1200" height="595" x="0" y="0" fill="hsl(210,15%,97.5%)"/><rect width="430" height="55" x="115" y="230" fill="hsl(240,12%,60%)" fill-opacity=".1"/><rect width="430" height="180" x="655" y="90" fill="hsl(0,0%,100%)"/><rect width="430" height="140" x="115" y="90" fill="hsl(0,0%,100%)"/><polygon fill="hsl(240,12%,60%)" fill-rule="nonzero" points="323 285 323 283 329 283 329 232 323 232 323 230 337 230 337 232 331 232 331 283 337 283 337 285"/><rect width="40" height="24" x="278" y="246" fill="hsl(240,12%,60%)" rx="12"/><text fill="#F9FAFA" font-family="Menlo-Bold, Menlo" font-size="16" font-weight="bold"><tspan x="289" y="263">30</tspan></text><rect width="429" height="55" x="656" y="270" fill="hsl(240,12%,60%)" fill-opacity=".1"/><polygon fill="hsl(240,12%,60%)" fill-rule="nonzero" points="863 325 863 323 869 323 869 272 863 272 863 270 877 270 877 272 871 272 871 323 877 323 877 325"/><rect width="40" height="24" x="818" y="286" fill="hsl(240,12%,60%)" rx="12"/><text fill="#F9FAFA" font-family="Menlo-Bold, Menlo" font-size="16" font-weight="bold"><tspan x="829" y="303">30</tspan></text><rect width="430" height="55" x="115" y="310" fill="hsl(240,12%,60%)" fill-opacity=".1"/><rect width="430" height="180" x="655" y="325" fill="hsl(0,0%,100%)"/><polygon fill="hsl(240,12%,60%)" fill-rule="nonzero" points="323 365 323 363 329 363 329 312 323 312 323 310 337 310 337 312 331 312 331 363 337 363 337 365"/><rect width="40" height="24" x="278" y="326" fill="hsl(240,12%,60%)" rx="12"/><text fill="#F9FAFA" font-family="Menlo-Bold, Menlo" font-size="16" font-weight="bold"><tspan x="289" y="343">30</tspan></text><rect width="430" height="140" x="115" y="365" fill="hsl(0,0%,100%)"/><line x1="1086" x2="1086" y1="90" y2="505" stroke="hsl(240,12%,60%)" stroke-width="2"/><line x1="655" x2="655" y1="90" y2="505" stroke="hsl(240,12%,60%)" stroke-width="2"/></g><g fill="none" fill-rule="evenodd" stroke="none" stroke-width="1" transform="translate(0,595)"><title>An element with a top margin of 30px and its first child element with a top margin of 30px will collapse so that the child element&apos;s margin collapses with that of its parent.</title><rect width="1200" height="595" x="0" y="0" fill="hsl(210,15%,97.5%)"/><rect width="430" height="55" x="115" y="90" fill="hsl(240,12%,60%)" fill-opacity=".1"/><rect width="430" height="55" x="655" y="90" fill="hsl(240,12%,60%)" fill-opacity=".1"/><rect width="430" height="359" x="655" y="146" fill="hsl(0,0%,100%)"/><rect width="430" height="360" x="115" y="145" fill="hsl(0,0%,100%)"/><rect width="213" height="178" x="656" y="146" fill="hsl(0,0%,100%)" stroke="hsl(240,14%,89%)" stroke-width="2"/><rect width="215" height="55" x="115" y="145" fill="hsl(240,12%,60%)" fill-opacity=".1"/><rect width="213" height="178" x="116" y="201" fill="hsl(0,0%,100%)" stroke="hsl(240,14%,89%)" stroke-width="2"/><polygon fill="hsl(240,12%,60%)" fill-rule="nonzero" points="323 145 323 143 329 143 329 92 323 92 323 90 337 90 337 92 331 92 331 143 337 143 337 145"/><polygon fill="hsl(240,12%,60%)" fill-rule="nonzero" points="216 202 216 200 222 200 222 145 216 145 216 143 230 143 230 145 224 145 224 200 230 200 230 202"/><polygon fill="hsl(240,12%,60%)" fill-rule="nonzero" points="863 145 863 143 869 143 869 92 863 92 863 90 877 90 877 92 871 92 871 143 877 143 877 145"/><path fill="hsl(240,12%,60%)" fill-rule="nonzero" d="M331,-69.5 L329,-69.5 L329,-62.5 L331,-62.5 L331,-69.5 Z M331,-59.5 L329,-59.5 L329,-52.5 L331,-52.5 L331,-59.5 Z M331,-49.5 L329,-49.5 L329,-42.5 L331,-42.5 L331,-49.5 Z M331,-39.5 L329,-39.5 L329,-32.5 L331,-32.5 L331,-39.5 Z M331,-29.5 L329,-29.5 L329,-22.5 L331,-22.5 L331,-29.5 Z M331,-19.5 L329,-19.5 L329,-12.5 L331,-12.5 L331,-19.5 Z M331,-9.5 L329,-9.5 L329,-2.5 L331,-2.5 L331,-9.5 Z M331,0.5 L329,0.5 L329,7.5 L331,7.5 L331,0.5 Z M331,10.5 L329,10.5 L329,17.5 L331,17.5 L331,10.5 Z M331,20.5 L329,20.5 L329,27.5 L331,27.5 L331,20.5 Z M331,30.5 L329,30.5 L329,37.5 L331,37.5 L331,30.5 Z M331,40.5 L329,40.5 L329,47.5 L331,47.5 L331,40.5 Z M331,50.5 L329,50.5 L329,57.5 L331,57.5 L331,50.5 Z M331,60.5 L329,60.5 L329,67.5 L331,67.5 L331,60.5 Z M331,70.5 L329,70.5 L329,77.5 L331,77.5 L331,70.5 Z M331,80.5 L329,80.5 L329,87.5 L331,87.5 L331,80.5 Z M331,90.5 L329,90.5 L329,97.5 L331,97.5 L331,90.5 Z M331,100.5 L329,100.5 L329,107.5 L331,107.5 L331,100.5 Z M331,110.5 L329,110.5 L329,117.5 L331,117.5 L331,110.5 Z M331,120.5 L329,120.5 L329,127.5 L331,127.5 L331,120.5 Z M331,130.5 L329,130.5 L329,137.5 L331,137.5 L331,130.5 Z M331,140.5 L329,140.5 L329,147.5 L331,147.5 L331,140.5 Z M331,150.5 L329,150.5 L329,157.5 L331,157.5 L331,150.5 Z M331,160.5 L329,160.5 L329,167.5 L331,167.5 L331,160.5 Z M331,170.5 L329,170.5 L329,177.5 L331,177.5 L331,170.5 Z M331,180.5 L329,180.5 L329,187.5 L331,187.5 L331,180.5 Z M331,190.5 L329,190.5 L329,197.5 L331,197.5 L331,190.5 Z M331,200.5 L329,200.5 L329,207.5 L331,207.5 L331,200.5 Z M331,210.5 L329,210.5 L329,217.5 L331,217.5 L331,210.5 Z M331,220.5 L329,220.5 L329,227.5 L331,227.5 L331,220.5 Z M331,230.5 L329,230.5 L329,237.5 L331,237.5 L331,230.5 Z M331,240.5 L329,240.5 L329,247.5 L331,247.5 L331,240.5 Z M331,250.5 L329,250.5 L329,257.5 L331,257.5 L331,250.5 Z M331,260.5 L329,260.5 L329,267.5 L331,267.5 L331,260.5 Z M331,270.5 L329,270.5 L329,277.5 L331,277.5 L331,270.5 Z M331,280.5 L329,280.5 L329,287.5 L331,287.5 L331,280.5 Z M331,290.5 L329,290.5 L329,297.5 L331,297.5 L331,290.5 Z M331,300.5 L329,300.5 L329,307.5 L331,307.5 L331,300.5 Z M331,310.5 L329,310.5 L329,317.5 L331,317.5 L331,310.5 Z M331,320.5 L329,320.5 L329,327.5 L331,327.5 L331,320.5 Z M331,330.5 L329,330.5 L329,337.5 L331,337.5 L331,330.5 Z M331,340.5 L329,340.5 L329,347.5 L331,347.5 L331,340.5 Z M331,350.5 L329,350.5 L329,357.5 L331,357.5 L331,350.5 Z" transform="translate(330.000000, 144.000000) rotate(-90.000000) translate(-330.000000, -144.000000)"/><line x1="655" x2="655" y1="91" y2="504" stroke="hsl(240,12%,60%)" stroke-width="2"/><line x1="1085" x2="1085" y1="91" y2="504" stroke="hsl(240,12%,60%)" stroke-width="2"/><g transform="translate(278.000000, 106.000000)"><rect width="40" height="24" x="0" y="0" fill="hsl(240,12%,60%)" rx="12"/><text fill="#F9FAFA" font-family="Menlo-Bold, Menlo" font-size="16" font-weight="bold"><tspan x="11" y="17">30</tspan></text></g><g transform="translate(818.000000, 106.000000)"><rect width="40" height="24" x="0" y="0" fill="hsl(240,12%,60%)" rx="12"/><text fill="#F9FAFA" font-family="Menlo-Bold, Menlo" font-size="16" font-weight="bold"><tspan x="11" y="17">30</tspan></text></g><g transform="translate(171.000000, 161.000000)"><rect width="40" height="24" x="0" y="0" fill="hsl(240,12%,60%)" rx="12"/><text fill="#F9FAFA" font-family="Menlo-Bold, Menlo" font-size="16" font-weight="bold"><tspan x="11" y="17">30</tspan></text></g></g><g fill="none" fill-rule="evenodd" stroke="none" stroke-width="1" transform="translate(0,1190)"><title>An element with a bottom margin of 30px and its last child element with a bottom margin of 30px will collapse so that the child element&apos;s margin collapses with that of its parent.</title><rect width="1200" height="595" x="0" y="0" fill="hsl(210,15%,97.5%)"/><rect width="430" height="55" x="115" y="450" fill="hsl(240,12%,60%)" fill-opacity=".1" transform="translate(330.000000, 477.500000) scale(1, -1) translate(-330.000000, -477.500000)"/><rect width="430" height="55" x="655" y="450" fill="hsl(240,12%,60%)" fill-opacity=".1" transform="translate(870.000000, 477.500000) scale(1, -1) translate(-870.000000, -477.500000)"/><rect width="430" height="359" x="655" y="90" fill="hsl(0,0%,100%)" transform="translate(870.000000, 269.500000) scale(1, -1) translate(-870.000000, -269.500000)"/><rect width="430" height="360" x="115" y="90" fill="hsl(0,0%,100%)" transform="translate(330.000000, 270.000000) scale(1, -1) translate(-330.000000, -270.000000)"/><rect width="213" height="178" x="656" y="271" fill="hsl(0,0%,100%)" stroke="hsl(240,14%,89%)" stroke-width="2" transform="translate(762.500000, 360.000000) scale(1, -1) translate(-762.500000, -360.000000)"/><rect width="215" height="55" x="115" y="395" fill="hsl(240,12%,60%)" fill-opacity=".1" transform="translate(222.500000, 422.500000) scale(1, -1) translate(-222.500000, -422.500000)"/><rect width="213" height="178" x="116" y="216" fill="hsl(0,0%,100%)" stroke="hsl(240,14%,89%)" stroke-width="2" transform="translate(222.500000, 305.000000) scale(1, -1) translate(-222.500000, -305.000000)"/><polygon fill="hsl(240,12%,60%)" fill-rule="nonzero" points="323 505 323 503 329 503 329 452 323 452 323 450 337 450 337 452 331 452 331 503 337 503 337 505"/><polygon fill="hsl(240,12%,60%)" fill-rule="nonzero" points="863 505 863 503 869 503 869 452 863 452 863 450 877 450 877 452 871 452 871 503 877 503 877 505"/><path fill="hsl(240,12%,60%)" fill-rule="nonzero" d="M331,237.5 L329,237.5 L329,244.5 L331,244.5 L331,237.5 Z M331,247.5 L329,247.5 L329,254.5 L331,254.5 L331,247.5 Z M331,257.5 L329,257.5 L329,264.5 L331,264.5 L331,257.5 Z M331,267.5 L329,267.5 L329,274.5 L331,274.5 L331,267.5 Z M331,277.5 L329,277.5 L329,284.5 L331,284.5 L331,277.5 Z M331,287.5 L329,287.5 L329,294.5 L331,294.5 L331,287.5 Z M331,297.5 L329,297.5 L329,304.5 L331,304.5 L331,297.5 Z M331,307.5 L329,307.5 L329,314.5 L331,314.5 L331,307.5 Z M331,317.5 L329,317.5 L329,324.5 L331,324.5 L331,317.5 Z M331,327.5 L329,327.5 L329,334.5 L331,334.5 L331,327.5 Z M331,337.5 L329,337.5 L329,344.5 L331,344.5 L331,337.5 Z M331,347.5 L329,347.5 L329,354.5 L331,354.5 L331,347.5 Z M331,357.5 L329,357.5 L329,364.5 L331,364.5 L331,357.5 Z M331,367.5 L329,367.5 L329,374.5 L331,374.5 L331,367.5 Z M331,377.5 L329,377.5 L329,384.5 L331,384.5 L331,377.5 Z M331,387.5 L329,387.5 L329,394.5 L331,394.5 L331,387.5 Z M331,397.5 L329,397.5 L329,404.5 L331,404.5 L331,397.5 Z M331,407.5 L329,407.5 L329,414.5 L331,414.5 L331,407.5 Z M331,417.5 L329,417.5 L329,424.5 L331,424.5 L331,417.5 Z M331,427.5 L329,427.5 L329,434.5 L331,434.5 L331,427.5 Z M331,437.5 L329,437.5 L329,444.5 L331,444.5 L331,437.5 Z M331,447.5 L329,447.5 L329,454.5 L331,454.5 L331,447.5 Z M331,457.5 L329,457.5 L329,464.5 L331,464.5 L331,457.5 Z M331,467.5 L329,467.5 L329,474.5 L331,474.5 L331,467.5 Z M331,477.5 L329,477.5 L329,484.5 L331,484.5 L331,477.5 Z M331,487.5 L329,487.5 L329,494.5 L331,494.5 L331,487.5 Z M331,497.5 L329,497.5 L329,504.5 L331,504.5 L331,497.5 Z M331,507.5 L329,507.5 L329,514.5 L331,514.5 L331,507.5 Z M331,517.5 L329,517.5 L329,524.5 L331,524.5 L331,517.5 Z M331,527.5 L329,527.5 L329,534.5 L331,534.5 L331,527.5 Z M331,537.5 L329,537.5 L329,544.5 L331,544.5 L331,537.5 Z M331,547.5 L329,547.5 L329,554.5 L331,554.5 L331,547.5 Z M331,557.5 L329,557.5 L329,564.5 L331,564.5 L331,557.5 Z M331,567.5 L329,567.5 L329,574.5 L331,574.5 L331,567.5 Z M331,577.5 L329,577.5 L329,584.5 L331,584.5 L331,577.5 Z M331,587.5 L329,587.5 L329,594.5 L331,594.5 L331,587.5 Z M331,597.5 L329,597.5 L329,604.5 L331,604.5 L331,597.5 Z M331,607.5 L329,607.5 L329,614.5 L331,614.5 L331,607.5 Z M331,617.5 L329,617.5 L329,624.5 L331,624.5 L331,617.5 Z M331,627.5 L329,627.5 L329,634.5 L331,634.5 L331,627.5 Z M331,637.5 L329,637.5 L329,644.5 L331,644.5 L331,637.5 Z M331,647.5 L329,647.5 L329,654.5 L331,654.5 L331,647.5 Z M331,657.5 L329,657.5 L329,664.5 L331,664.5 L331,657.5 Z" transform="translate(330.000000, 451.000000) scale(1, -1) rotate(-90.000000) translate(-330.000000, -451.000000)"/><line x1="655" x2="655" y1="91" y2="504" stroke="hsl(240,12%,60%)" stroke-width="2" transform="translate(655.000000, 297.500000) scale(1, -1) translate(-655.000000, -297.500000)"/><line x1="1085" x2="1085" y1="91" y2="504" stroke="hsl(240,12%,60%)" stroke-width="2"/><g transform="translate(298.000000, 477.000000) scale(1, -1) translate(-298.000000, -477.000000) translate(278.000000, 465.000000)"><rect width="40" height="24" x="0" y="0" fill="hsl(240,12%,60%)" rx="12"/><text fill="#F9FAFA" font-family="Menlo-Regular, Menlo" font-size="16" font-weight="normal" transform="translate(21.000000, 12.500000) scale(1, -1) translate(-21.000000, -12.500000)"><tspan x="11" y="18">30</tspan></text></g><g transform="translate(838.000000, 477.000000) scale(1, -1) translate(-838.000000, -477.000000) translate(818.000000, 465.000000)"><rect width="40" height="24" x="0" y="0" fill="hsl(240,12%,60%)" rx="12"/><text fill="#F9FAFA" font-family="Menlo-Regular, Menlo" font-size="16" font-weight="normal" transform="translate(21.000000, 12.500000) scale(1, -1) translate(-21.000000, -12.500000)"><tspan x="11" y="18">30</tspan></text></g><g transform="translate(191.000000, 422.000000) scale(1, -1) translate(-191.000000, -422.000000) translate(171.000000, 410.000000)"><rect width="40" height="24" x="0" y="0" fill="hsl(240,12%,60%)" rx="12"/><text fill="#F9FAFA" font-family="Menlo-Regular, Menlo" font-size="16" font-weight="normal" transform="translate(21.000000, 12.500000) scale(1, -1) translate(-21.000000, -12.500000)"><tspan x="11" y="18">30</tspan></text></g><polygon fill="hsl(240,12%,60%)" fill-rule="nonzero" points="216 452 216 450 222 450 222 395 216 395 216 393 230 393 230 395 224 395 224 450 230 450 230 452"/></g><g fill="none" fill-rule="evenodd" stroke="none" stroke-width="1" transform="translate(0,1785)"><title>An element that doesn&apos;t take up space in the flow of the page will have its top and bottom margins collapse to 0.</title><rect width="1200" height="345" x="0" y="0" fill="hsl(210,15%,97.5%)"/><path fill="hsl(240,14%,80%)" fill-rule="nonzero" d="M545,151 L543,151 L543,146 L545,146 L545,151 Z M545,161 L543,161 L543,156 L545,156 L545,161 Z M545,171 L543,171 L543,166 L545,166 L545,171 Z M545,181 L543,181 L543,176 L545,176 L545,181 Z M545,191 L543,191 L543,186 L545,186 L545,191 Z M542,200 L542,198 L544,198 L543,199 L543,196 L545,196 L545,200 L542,200 Z M532,200 L532,198 L537,198 L537,200 L532,200 Z M522,200 L522,198 L527,198 L527,200 L522,200 Z M512,200 L512,198 L517,198 L517,200 L512,200 Z M502,200 L502,198 L507,198 L507,200 L502,200 Z M492,200 L492,198 L497,198 L497,200 L492,200 Z M482,200 L482,198 L487,198 L487,200 L482,200 Z M472,200 L472,198 L477,198 L477,200 L472,200 Z M462,200 L462,198 L467,198 L467,200 L462,200 Z M452,200 L452,198 L457,198 L457,200 L452,200 Z M442,200 L442,198 L447,198 L447,200 L442,200 Z M432,200 L432,198 L437,198 L437,200 L432,200 Z M422,200 L422,198 L427,198 L427,200 L422,200 Z M412,200 L412,198 L417,198 L417,200 L412,200 Z M402,200 L402,198 L407,198 L407,200 L402,200 Z M392,200 L392,198 L397,198 L397,200 L392,200 Z M382,200 L382,198 L387,198 L387,200 L382,200 Z M372,200 L372,198 L377,198 L377,200 L372,200 Z M362,200 L362,198 L367,198 L367,200 L362,200 Z M352,200 L352,198 L357,198 L357,200 L352,200 Z M342,200 L342,198 L347,198 L347,200 L342,200 Z M332,200 L332,198 L337,198 L337,200 L332,200 Z M322,200 L322,198 L327,198 L327,200 L322,200 Z M312,200 L312,198 L317,198 L317,200 L312,200 Z M302,200 L302,198 L307,198 L307,200 L302,200 Z M292,200 L292,198 L297,198 L297,200 L292,200 Z M282,200 L282,198 L287,198 L287,200 L282,200 Z M272,200 L272,198 L277,198 L277,200 L272,200 Z M262,200 L262,198 L267,198 L267,200 L262,200 Z M252,200 L252,198 L257,198 L257,200 L252,200 Z M242,200 L242,198 L247,198 L247,200 L242,200 Z M232,200 L232,198 L237,198 L237,200 L232,200 Z M222,200 L222,198 L227,198 L227,200 L222,200 Z M212,200 L212,198 L217,198 L217,200 L212,200 Z M202,200 L202,198 L207,198 L207,200 L202,200 Z M192,200 L192,198 L197,198 L197,200 L192,200 Z M182,200 L182,198 L187,198 L187,200 L182,200 Z M172,200 L172,198 L177,198 L177,200 L172,200 Z M162,200 L162,198 L167,198 L167,200 L162,200 Z M152,200 L152,198 L157,198 L157,200 L152,200 Z M142,200 L142,198 L147,198 L147,200 L142,200 Z M132,200 L132,198 L137,198 L137,200 L132,200 Z M122,200 L122,198 L127,198 L127,200 L122,200 Z M115,195 L117,195 L117,199 L116,198 L117,198 L117,200 L115,200 L115,195 Z M115,185 L117,185 L117,190 L115,190 L115,185 Z M115,175 L117,175 L117,180 L115,180 L115,175 Z M115,165 L117,165 L117,170 L115,170 L115,165 Z M115,155 L117,155 L117,160 L115,160 L115,155 Z M117,145 L117,147 L116,147 L117,146 L117,150 L115,150 L115,145 L117,145 Z M127,145 L127,147 L122,147 L122,145 L127,145 Z M137,145 L137,147 L132,147 L132,145 L137,145 Z M147,145 L147,147 L142,147 L142,145 L147,145 Z M157,145 L157,147 L152,147 L152,145 L157,145 Z M167,145 L167,147 L162,147 L162,145 L167,145 Z M177,145 L177,147 L172,147 L172,145 L177,145 Z M187,145 L187,147 L182,147 L182,145 L187,145 Z M197,145 L197,147 L192,147 L192,145 L197,145 Z M207,145 L207,147 L202,147 L202,145 L207,145 Z M217,145 L217,147 L212,147 L212,145 L217,145 Z M227,145 L227,147 L222,147 L222,145 L227,145 Z M237,145 L237,147 L232,147 L232,145 L237,145 Z M247,145 L247,147 L242,147 L242,145 L247,145 Z M257,145 L257,147 L252,147 L252,145 L257,145 Z M267,145 L267,147 L262,147 L262,145 L267,145 Z M277,145 L277,147 L272,147 L272,145 L277,145 Z M287,145 L287,147 L282,147 L282,145 L287,145 Z M297,145 L297,147 L292,147 L292,145 L297,145 Z M307,145 L307,147 L302,147 L302,145 L307,145 Z M317,145 L317,147 L312,147 L312,145 L317,145 Z M327,145 L327,147 L322,147 L322,145 L327,145 Z M337,145 L337,147 L332,147 L332,145 L337,145 Z M347,145 L347,147 L342,147 L342,145 L347,145 Z M357,145 L357,147 L352,147 L352,145 L357,145 Z M367,145 L367,147 L362,147 L362,145 L367,145 Z M377,145 L377,147 L372,147 L372,145 L377,145 Z M387,145 L387,147 L382,147 L382,145 L387,145 Z M397,145 L397,147 L392,147 L392,145 L397,145 Z M407,145 L407,147 L402,147 L402,145 L407,145 Z M417,145 L417,147 L412,147 L412,145 L417,145 Z M427,145 L427,147 L422,147 L422,145 L427,145 Z M437,145 L437,147 L432,147 L432,145 L437,145 Z M447,145 L447,147 L442,147 L442,145 L447,145 Z M457,145 L457,147 L452,147 L452,145 L457,145 Z M467,145 L467,147 L462,147 L462,145 L467,145 Z M477,145 L477,147 L472,147 L472,145 L477,145 Z M487,145 L487,147 L482,147 L482,145 L487,145 Z M497,145 L497,147 L492,147 L492,145 L497,145 Z M507,145 L507,147 L502,147 L502,145 L507,145 Z M517,145 L517,147 L512,147 L512,145 L517,145 Z M527,145 L527,147 L522,147 L522,145 L527,145 Z M537,145 L537,147 L532,147 L532,145 L537,145 Z M544,145 L544,147 L542,147 L542,145 L544,145 Z" transform="translate(330.000000, 172.500000) scale(1, -1) translate(-330.000000, -172.500000)"/><path fill="hsl(240,14%,80%)" fill-rule="nonzero" d="M1085,151 L1083,151 L1083,146 L1085,146 L1085,151 Z M1085,161 L1083,161 L1083,156 L1085,156 L1085,161 Z M1085,171 L1083,171 L1083,166 L1085,166 L1085,171 Z M1085,181 L1083,181 L1083,176 L1085,176 L1085,181 Z M1085,191 L1083,191 L1083,186 L1085,186 L1085,191 Z M1082,200 L1082,198 L1084,198 L1083,199 L1083,196 L1085,196 L1085,200 L1082,200 Z M1072,200 L1072,198 L1077,198 L1077,200 L1072,200 Z M1062,200 L1062,198 L1067,198 L1067,200 L1062,200 Z M1052,200 L1052,198 L1057,198 L1057,200 L1052,200 Z M1042,200 L1042,198 L1047,198 L1047,200 L1042,200 Z M1032,200 L1032,198 L1037,198 L1037,200 L1032,200 Z M1022,200 L1022,198 L1027,198 L1027,200 L1022,200 Z M1012,200 L1012,198 L1017,198 L1017,200 L1012,200 Z M1002,200 L1002,198 L1007,198 L1007,200 L1002,200 Z M992,200 L992,198 L997,198 L997,200 L992,200 Z M982,200 L982,198 L987,198 L987,200 L982,200 Z M972,200 L972,198 L977,198 L977,200 L972,200 Z M962,200 L962,198 L967,198 L967,200 L962,200 Z M952,200 L952,198 L957,198 L957,200 L952,200 Z M942,200 L942,198 L947,198 L947,200 L942,200 Z M932,200 L932,198 L937,198 L937,200 L932,200 Z M922,200 L922,198 L927,198 L927,200 L922,200 Z M912,200 L912,198 L917,198 L917,200 L912,200 Z M902,200 L902,198 L907,198 L907,200 L902,200 Z M892,200 L892,198 L897,198 L897,200 L892,200 Z M882,200 L882,198 L887,198 L887,200 L882,200 Z M872,200 L872,198 L877,198 L877,200 L872,200 Z M862,200 L862,198 L867,198 L867,200 L862,200 Z M852,200 L852,198 L857,198 L857,200 L852,200 Z M842,200 L842,198 L847,198 L847,200 L842,200 Z M832,200 L832,198 L837,198 L837,200 L832,200 Z M822,200 L822,198 L827,198 L827,200 L822,200 Z M812,200 L812,198 L817,198 L817,200 L812,200 Z M802,200 L802,198 L807,198 L807,200 L802,200 Z M792,200 L792,198 L797,198 L797,200 L792,200 Z M782,200 L782,198 L787,198 L787,200 L782,200 Z M772,200 L772,198 L777,198 L777,200 L772,200 Z M762,200 L762,198 L767,198 L767,200 L762,200 Z M752,200 L752,198 L757,198 L757,200 L752,200 Z M742,200 L742,198 L747,198 L747,200 L742,200 Z M732,200 L732,198 L737,198 L737,200 L732,200 Z M722,200 L722,198 L727,198 L727,200 L722,200 Z M712,200 L712,198 L717,198 L717,200 L712,200 Z M702,200 L702,198 L707,198 L707,200 L702,200 Z M692,200 L692,198 L697,198 L697,200 L692,200 Z M682,200 L682,198 L687,198 L687,200 L682,200 Z M672,200 L672,198 L677,198 L677,200 L672,200 Z M662,200 L662,198 L667,198 L667,200 L662,200 Z M655,195 L657,195 L657,199 L656,198 L657,198 L657,200 L655,200 L655,195 Z M655,185 L657,185 L657,190 L655,190 L655,185 Z M655,175 L657,175 L657,180 L655,180 L655,175 Z M655,165 L657,165 L657,170 L655,170 L655,165 Z M655,155 L657,155 L657,160 L655,160 L655,155 Z M657,145 L657,147 L656,147 L657,146 L657,150 L655,150 L655,145 L657,145 Z M667,145 L667,147 L662,147 L662,145 L667,145 Z M677,145 L677,147 L672,147 L672,145 L677,145 Z M687,145 L687,147 L682,147 L682,145 L687,145 Z M697,145 L697,147 L692,147 L692,145 L697,145 Z M707,145 L707,147 L702,147 L702,145 L707,145 Z M717,145 L717,147 L712,147 L712,145 L717,145 Z M727,145 L727,147 L722,147 L722,145 L727,145 Z M737,145 L737,147 L732,147 L732,145 L737,145 Z M747,145 L747,147 L742,147 L742,145 L747,145 Z M757,145 L757,147 L752,147 L752,145 L757,145 Z M767,145 L767,147 L762,147 L762,145 L767,145 Z M777,145 L777,147 L772,147 L772,145 L777,145 Z M787,145 L787,147 L782,147 L782,145 L787,145 Z M797,145 L797,147 L792,147 L792,145 L797,145 Z M807,145 L807,147 L802,147 L802,145 L807,145 Z M817,145 L817,147 L812,147 L812,145 L817,145 Z M827,145 L827,147 L822,147 L822,145 L827,145 Z M837,145 L837,147 L832,147 L832,145 L837,145 Z M847,145 L847,147 L842,147 L842,145 L847,145 Z M857,145 L857,147 L852,147 L852,145 L857,145 Z M867,145 L867,147 L862,147 L862,145 L867,145 Z M877,145 L877,147 L872,147 L872,145 L877,145 Z M887,145 L887,147 L882,147 L882,145 L887,145 Z M897,145 L897,147 L892,147 L892,145 L897,145 Z M907,145 L907,147 L902,147 L902,145 L907,145 Z M917,145 L917,147 L912,147 L912,145 L917,145 Z M927,145 L927,147 L922,147 L922,145 L927,145 Z M937,145 L937,147 L932,147 L932,145 L937,145 Z M947,145 L947,147 L942,147 L942,145 L947,145 Z M957,145 L957,147 L952,147 L952,145 L957,145 Z M967,145 L967,147 L962,147 L962,145 L967,145 Z M977,145 L977,147 L972,147 L972,145 L977,145 Z M987,145 L987,147 L982,147 L982,145 L987,145 Z M997,145 L997,147 L992,147 L992,145 L997,145 Z M1007,145 L1007,147 L1002,147 L1002,145 L1007,145 Z M1017,145 L1017,147 L1012,147 L1012,145 L1017,145 Z M1027,145 L1027,147 L1022,147 L1022,145 L1027,145 Z M1037,145 L1037,147 L1032,147 L1032,145 L1037,145 Z M1047,145 L1047,147 L1042,147 L1042,145 L1047,145 Z M1057,145 L1057,147 L1052,147 L1052,145 L1057,145 Z M1067,145 L1067,147 L1062,147 L1062,145 L1067,145 Z M1077,145 L1077,147 L1072,147 L1072,145 L1077,145 Z M1084,145 L1084,147 L1082,147 L1082,145 L1084,145 Z" transform="translate(870.000000, 172.500000) scale(1, -1) translate(-870.000000, -172.500000)"/><rect width="430" height="55" x="115" y="90" fill="hsl(240,12%,60%)" fill-opacity=".1" transform="translate(330.000000, 117.500000) scale(1, -1) translate(-330.000000, -117.500000)"/><rect width="430" height="55" x="115" y="200" fill="hsl(240,12%,60%)" fill-opacity=".1" transform="translate(330.000000, 227.500000) scale(1, -1) translate(-330.000000, -227.500000)"/><polygon fill="hsl(240,12%,60%)" fill-rule="nonzero" points="323 147 323 145 329 145 329 92 323 92 323 90 337 90 337 92 331 92 331 145 337 145 337 147"/><polygon fill="hsl(240,12%,60%)" fill-rule="nonzero" points="323 255 323 253 329 253 329 200 323 200 323 198 337 198 337 200 331 200 331 253 337 253 337 255"/><line x1="656" x2="656" y1="145" y2="200" stroke="hsl(240,12%,60%)" stroke-width="2" transform="translate(656.000000, 172.500000) scale(1, -1) translate(-656.000000, -172.500000)"/><line x1="1084" x2="1084" y1="145" y2="200" stroke="hsl(240,12%,60%)" stroke-width="2"/><polygon fill="hsl(240,12%,60%)" fill-rule="nonzero" points="323 200 323 198 329 198 329 147 323 147 323 145 337 145 337 147 331 147 331 198 337 198 337 200"/><polygon fill="hsl(240,12%,60%)" fill-rule="nonzero" points="863 200 863 198 869 198 869 147 863 147 863 145 877 145 877 147 871 147 871 198 877 198 877 200"/><g transform="translate(298.000000, 117.000000) scale(1, -1) translate(-298.000000, -117.000000) translate(278.000000, 105.000000)"><rect width="40" height="24" x="0" y="0" fill="hsl(240,12%,60%)" rx="12"/><text fill="#F9FAFA" font-family="Menlo-Bold, Menlo" font-size="16" font-weight="bold" transform="translate(21.000000, 12.500000) scale(1, -1) translate(-21.000000, -12.500000)"><tspan x="11" y="18">30</tspan></text></g><g transform="translate(298.000000, 171.000000) scale(1, -1) translate(-298.000000, -171.000000) translate(278.000000, 159.000000)"><rect width="40" height="24" x="0" y="0" fill="hsl(240,12%,60%)" rx="12"/><text fill="#F9FAFA" font-family="Menlo-Bold, Menlo" font-size="16" font-weight="bold" transform="translate(20.500000, 12.500000) scale(1, -1) translate(-20.500000, -12.500000)"><tspan x="15.5" y="18">0</tspan></text></g><g transform="translate(838.000000, 171.000000) scale(1, -1) translate(-838.000000, -171.000000) translate(818.000000, 159.000000)"><rect width="40" height="24" x="0" y="0" fill="hsl(240,12%,60%)" rx="12"/><text fill="#F9FAFA" font-family="Menlo-Bold, Menlo" font-size="16" font-weight="bold" transform="translate(20.500000, 12.500000) scale(1, -1) translate(-20.500000, -12.500000)"><tspan x="15.5" y="18">0</tspan></text></g><g transform="translate(298.000000, 227.000000) scale(1, -1) translate(-298.000000, -227.000000) translate(278.000000, 215.000000)"><rect width="40" height="24" x="0" y="0" fill="hsl(240,12%,60%)" rx="12"/><text fill="#F9FAFA" font-family="Menlo-Bold, Menlo" font-size="16" font-weight="bold" transform="translate(21.000000, 12.500000) scale(1, -1) translate(-21.000000, -12.500000)"><tspan x="11" y="18">30</tspan></text></g></g></svg>