<svg xmlns="http://www.w3.org/2000/svg" width="100%" viewBox="-5 40 630 180"><title>Basic W3C Recommendation Track</title><g role="list"><g role="listitem"><a href="#wd-1"><rect width="57" height="45" y="122" fill="#fff" role="img"><title>First Public Working Draft (FPWD) - Exclusion opportunity</title></rect><text font-size="8"><tspan x="0" y="132" aria-hidden="true">First Public WD</tspan> <tspan x="0" y="152">WG decision</tspan> <tspan x="0" y="162">Director&apos;s approval</tspan></text><path fill="none" stroke="#000" d="M0,140h53"/><polygon points="47 136 57 140 47 144"/></a></g><g role="listitem"><a href="#cr-1"><ellipse id="wd-1" cx="97" cy="140" fill="#fff" stroke="#000" role="img" rx="38" ry="18"><title>Working Draft (WD)</title></ellipse><text x="97" y="144" aria-hidden="true" font-size="14" text-anchor="middle">WD</text></a><g role="list"><g role="listitem"><a href="#wd-1"><g role="img"><title>Publish a new Working Draft</title></g><text font-size="8"><tspan x="30" y="92">WG Decision: review needed, or</tspan> <tspan x="40" y="100">No change for 6 months</tspan></text><path fill="none" stroke="#000" stroke-dasharray="6 1" d="M78,124C73,114 79,104 97,104 108,104 115,108 117,114"/><polygon points="120 114 116 124 114 113"/></a></g><g fill="#060" role="listitem"><a href="#cr-1"><g role="img"><title>Advance to Candidate Recommendation</title></g><text x="138" y="134" font-size="8">Director&apos;s approval</text><path stroke="#060" d="M135,140h81"/><polygon points="211 136 221 140 211 144"/></a></g></g></g><g role="listitem"><a href="#pr-1"><ellipse id="cr-1" cx="260" cy="140" fill="#fff" stroke="#000" role="img" rx="38" ry="18"><title>Candidate Recommendation (CR) - Patent Policy exclusion opportunity</title></ellipse><text x="260" y="144" aria-hidden="true" font-size="14" text-anchor="middle">CR</text></a><a href="#crd-1"><ellipse id="crd-1" cx="260" cy="80" fill="#fff" stroke="#000" role="img" rx="38" ry="18"><title>Candidate Recommendation Draft (CRD)</title></ellipse><text x="260" y="84" aria-hidden="true" font-size="14" text-anchor="middle">CRD</text></a><g role="list"><g role="listitem"><a href="#crd-1"><g role="img"><title>Publish revised Candidate Recommendation Draft</title></g><text font-size="8"><tspan x="182" y="112">WG Decision</tspan></text><path stroke="#000" d="M234,127v-34"/><polygon points="234 92 230 102 238 102"/></a></g><g role="listitem"><a href="#crd-1"><g role="img"><title>Publish revised Candidate Recommendation Draft</title></g><text font-size="8"><tspan x="282" y="52">WG Decision</tspan></text><path fill="none" stroke="#000" d="M242,64C238,54 244,44 260,44 271,44 277,48 279,54"/><polygon points="282 54 277 64 275 53"/></a></g><g role="listitem"><a href="#cr-1"><g role="img"><title>Publish revised Candidate Recommendation</title></g><text font-size="8"><tspan x="288" y="104">WG Decision +</tspan> <tspan x="288" y="112">Director’s approval</tspan></text><path stroke="#000" d="M286,127v-34"/><polygon points="286 128 282 118 290 118"/></a></g><g role="listitem"><a href="#cr-1"><g role="img"><title>Publish revised Candidate Recommendation</title></g><text font-size="8"><tspan x="182" y="112">WG Decision</tspan> <tspan x="288" y="112">Director’s approval</tspan></text><path fill="none" stroke="#000" stroke-dasharray="5 11" d="M242,124C238,114 244,104 260,104 271,104 277,108 279,114"/><path fill="none" stroke="#060" stroke-dasharray="5 11" stroke-dashoffset="8" d="M242,124C238,114 244,104 260,104 271,104 277,108 279,114"/><polygon points="282 114 277 124 275 113"/></a></g><g role="listitem"><a href="#pr-1"><g role="img"><title>Advance to Proposed Recommendation</title></g><text x="300" y="134" font-size="8">Director&apos;s approval</text><path stroke="#060" d="M298,140h77"/><polygon points="374 136 384 140 374 144"/></a></g><g role="listitem"><a href="#wd-1"><g role="img"><title>Return to Working Draft</title></g><text font-size="8"><tspan x="142" y="160">WG or Director decision</tspan> <tspan x="144" y="170">e.g. for further review</tspan></text><path stroke="#600" stroke-dasharray="4 4" d="M140,147h84"/><polygon points="140 145 133 147 140 149"/></a></g></g></g><g role="listitem"><a href="#rec-1"><ellipse id="pr-1" cx="413" cy="140" fill="#fff" stroke="#000" role="img" rx="28" ry="18"><title>Proposed Recommendation (PR) - Advisory Committee review</title></ellipse><text x="413" y="144" aria-hidden="true" font-size="14" text-anchor="middle">PR</text></a><g role="list"><g role="listitem"><a href="#rec-1"><g role="img"><title>Advance to Recommendation</title></g><text x="300" y="138" font-size="8"><tspan x="445" y="124">Advisory Committee Review</tspan> <tspan x="445" y="134">Director&apos;s Decision</tspan></text><path stroke="#060" d="M441,140h100"/><polygon points="534 136 544 140 534 144"/></a></g><g role="listitem"><a href="#cr-1"><g role="img"><title>Return to Candidate Recommendation</title></g><text font-size="8"><tspan x="306" y="160">AC Review,</tspan> <tspan x="302" y="170">Director Decision</tspan> <tspan x="304" y="180">e.g. for editorial changes</tspan></text><path stroke="#600" stroke-dasharray="3 5" d="M301,147h88"/><polygon points="301 145 296 147 301 149"/></a></g><g role="listitem"><a href="#wd-1"><g role="img"><title>Return to Working Draft</title></g><text font-size="9"><tspan x="90" y="202">Advisory Committee review and Director&apos;s Decision, e.g. for further work and review</tspan></text><path fill="none" stroke="#c00" stroke-dasharray="2 2" d="M413,158v32h-316v-26"/><polygon points="95 164 97 159 99 164"/></a></g></g></g><g role="listitem"><ellipse id="rec-1" cx="573" cy="140" fill="#fff" stroke="#000" stroke-width="2" role="img" rx="28" ry="18"><title>Recommendation (Rec)</title></ellipse><text x="573" y="144" stroke-width=".3" aria-hidden="true" font-size="16" text-anchor="middle">REC</text></g></g></svg>